<svg width="297" height="236" viewBox="0 0 297 236" fill="none" xmlns="http://www.w3.org/2000/svg">
<g clip-path="url(#clip0_1073_17706)">
<mask id="mask0_1073_17706" style="mask-type:alpha" maskUnits="userSpaceOnUse" x="-8" y="-17" width="311" height="249">
<path d="M302.045 -16.311V231.4H-7.19922V-16.311H302.045Z" fill="#E8E8E8"/>
</mask>
<g mask="url(#mask0_1073_17706)">
<path d="M152.156 2.62231C231.396 2.62231 295.734 66.9595 295.734 146.2C295.734 225.441 231.396 289.778 152.156 289.778C72.9153 289.778 8.57812 225.441 8.57812 146.2C8.57812 66.9595 72.9153 2.62231 152.156 2.62231Z" fill="#F9F9F9"/>
</g>
<mask id="mask1_1073_17706" style="mask-type:luminance" maskUnits="userSpaceOnUse" x="8" y="85" width="257" height="256">
<path d="M8.50781 85.1401H264.108V340.74H8.50781V85.1401Z" fill="white"/>
</mask>
<g mask="url(#mask1_1073_17706)">
<g opacity="0.99903">
<path d="M141.987 161.82C141.987 163.126 140.926 164.187 139.62 164.187H120.687C119.381 164.187 118.32 163.126 118.32 161.82C118.32 160.514 119.381 159.454 120.687 159.454H139.62C140.926 159.454 141.987 160.514 141.987 161.82Z" fill="#E6E6E6"/>
<path d="M123.409 155.667C125.433 155.667 127.077 157.311 127.077 159.335C127.077 161.36 125.433 163.003 123.409 163.003C121.384 163.003 119.74 161.36 119.74 159.335C119.74 157.311 121.384 155.667 123.409 155.667Z" fill="#E6E6E6"/>
<path d="M137.413 156.868C139.033 156.868 140.348 158.183 140.348 159.803C140.348 161.422 139.033 162.737 137.413 162.737C135.794 162.737 134.479 161.422 134.479 159.803C134.479 158.183 135.794 156.868 137.413 156.868Z" fill="#E6E6E6"/>
<path d="M131.101 149.987C134.628 149.987 137.491 152.85 137.491 156.377C137.491 159.903 134.628 162.767 131.101 162.767C127.574 162.767 124.711 159.903 124.711 156.377C124.711 152.85 127.574 149.987 131.101 149.987Z" fill="#E6E6E6"/>
</g>
</g>
<path d="M54.3705 232.781C54.3705 233.471 54.1902 234.031 53.9681 234.031H31.0351C30.8131 234.031 30.6328 233.471 30.6328 232.781C30.6328 232.091 30.8131 231.53 31.0351 231.53H53.9681C54.1902 231.53 54.3705 232.091 54.3705 232.781Z" fill="#22253C"/>
<path d="M242.98 232.781C242.98 233.471 242.823 234.031 242.629 234.031H222.619C222.425 234.031 222.268 233.471 222.268 232.781C222.268 232.091 222.425 231.53 222.619 231.53H242.629C242.823 231.53 242.98 232.091 242.98 232.781Z" fill="#22253C"/>
<path d="M267.34 232.781C267.34 233.471 267.202 234.031 267.032 234.031H249.495C249.325 234.031 249.188 233.471 249.188 232.781C249.188 232.091 249.325 231.53 249.495 231.53H267.032C267.202 231.53 267.34 232.091 267.34 232.781Z" fill="#22253C"/>
<path d="M216.171 232.781C216.171 233.471 215.001 234.031 213.56 234.031H64.7206C63.2795 234.031 62.1094 233.471 62.1094 232.781C62.1094 232.091 63.2795 231.53 64.7206 231.53H213.56C215.001 231.53 216.171 232.091 216.171 232.781Z" fill="#22253C"/>
<path d="M66.759 201.422C59.2645 199.45 58.4757 209.508 58.4757 209.311C45.0645 204.183 48.8118 215.622 48.8118 216.017C41.5145 216.608 45.459 223.511 45.459 223.708C38.7534 227.85 47.6284 232.386 47.6284 232.386C47.6284 232.386 80.1701 231.794 79.9729 231.992C86.6784 224.3 77.0145 220.75 77.0145 220.75C79.5784 219.172 78.9868 214.636 78.7895 214.833C77.409 209.706 69.7173 212.269 69.9145 212.467C74.4507 204.775 66.9562 201.225 66.759 201.422Z" fill="#E6E6E6"/>
<path d="M106.4 81.5112V131.211C106.4 141.661 97.9158 150.145 87.4665 150.145C77.0172 150.145 68.5332 141.661 68.5332 131.211V81.5112C68.5332 71.0619 77.0172 62.5779 87.4665 62.5779C97.9158 62.5779 106.4 71.0619 106.4 81.5112Z" fill="#F2F2F2"/>
<path d="M88.2559 232.978V94.1335" stroke="#D9D7D7" stroke-width="10"/>
<path d="M88.0586 122.731L94.7641 112.87" stroke="#D9D7D7" stroke-width="7"/>
<path d="M81.3535 100.642L88.848 114.25" stroke="#D9D7D7" stroke-width="7"/>
<path d="M61.9706 108.349V149.103C61.9706 157.671 55.0137 164.628 46.4453 164.628C37.8768 164.628 30.9199 157.671 30.9199 149.103V108.349C30.9199 99.7806 37.8768 92.8237 46.4453 92.8237C55.0137 92.8237 61.9706 99.7806 61.9706 108.349Z" fill="#F2F2F2"/>
<path d="M47.0918 232.552V118.699" stroke="#D9D7D7" stroke-width="8.2"/>
<path d="M46.9297 142.149L52.4282 134.063" stroke="#D9D7D7" stroke-width="5.74"/>
<path d="M41.4316 124.036L47.5771 135.195" stroke="#D9D7D7" stroke-width="5.74"/>
<mask id="mask2_1073_17706" style="mask-type:luminance" maskUnits="userSpaceOnUse" x="0" y="35" width="269" height="269">
<path d="M0.484375 35.1719H268.864V303.552H0.484375V35.1719Z" fill="white"/>
</mask>
<g mask="url(#mask2_1073_17706)">
<path d="M200.464 145.754H198.538L194.811 231.984L206.242 231.735L200.464 145.754Z" fill="#E6E6E6"/>
<mask id="mask3_1073_17706" style="mask-type:luminance" maskUnits="userSpaceOnUse" x="-25" y="15" width="378" height="378">
<path d="M-24.6562 180.944L186.683 15.5242L352.102 226.863L140.763 392.283L-24.6562 180.944Z" fill="white"/>
</mask>
<g mask="url(#mask3_1073_17706)">
<path d="M197.237 141.696C198.695 140.554 200.806 140.812 201.947 142.27C203.088 143.728 202.831 145.838 201.373 146.979C199.915 148.12 197.805 147.863 196.663 146.405C195.522 144.947 195.779 142.837 197.237 141.696Z" fill="#E6E6E6"/>
<path d="M209.375 137.245L205.206 142.401L200.484 144.835L251.16 138.62L243.894 135.787L209.375 137.245Z" fill="#E6E6E6"/>
<path d="M189.148 140.602L195.74 141.319L200.341 143.974L167.702 104.714L169.25 112.358L189.148 140.602Z" fill="#E6E6E6"/>
<path d="M201.733 156.019L199.395 149.814L199.685 144.51L179.402 191.363L185.522 186.53L201.733 156.019Z" fill="#E6E6E6"/>
</g>
</g>
<path d="M179.768 204.183L119.024 204.184L112.318 226.667L185.685 227.061L179.768 204.183Z" fill="#E66045"/>
<path d="M199.489 223.511L199.49 234.753L98.3145 234.753L98.3145 223.511L199.489 223.511Z" fill="#C3523B"/>
<path d="M171.88 180.911L125.73 180.911L121.391 195.111L176.613 195.111L171.88 180.911Z" fill="#E66045"/>
<path d="M154.129 115.039L143.874 115.039L128.491 170.656L170.302 170.656L154.129 115.039Z" fill="#E66045"/>
<path d="M252.937 201.422C245.442 199.45 244.653 209.508 244.653 209.311C231.242 204.183 234.989 215.622 234.989 216.017C227.692 216.608 231.637 223.511 231.637 223.708C224.931 227.85 233.806 232.386 233.806 232.386C233.806 232.386 266.348 231.794 266.151 231.992C272.856 224.3 263.192 220.75 263.192 220.75C265.756 219.172 265.165 214.636 264.967 214.833C263.587 209.706 255.895 212.269 256.092 212.467C260.628 204.775 253.134 201.225 252.937 201.422Z" fill="#D4D1D1"/>
<g opacity="0.996823">
<path d="M149.716 75.2001C149.716 77.377 147.948 79.1445 145.771 79.1445H114.216C112.039 79.1445 110.271 77.377 110.271 75.2001C110.271 73.0231 112.039 71.2556 114.216 71.2556H145.771C147.948 71.2556 149.716 73.0231 149.716 75.2001Z" fill="#E6E6E6"/>
<path d="M118.753 64.9443C122.127 64.9443 124.866 67.684 124.866 71.0582C124.866 74.4325 122.127 77.1721 118.753 77.1721C115.378 77.1721 112.639 74.4325 112.639 71.0582C112.639 67.684 115.378 64.9443 118.753 64.9443Z" fill="#E6E6E6"/>
<path d="M142.094 66.9463C144.794 66.9463 146.985 69.138 146.985 71.8374C146.985 74.5368 144.794 76.7285 142.094 76.7285C139.395 76.7285 137.203 74.5368 137.203 71.8374C137.203 69.138 139.395 66.9463 142.094 66.9463Z" fill="#E6E6E6"/>
<path d="M131.572 55.4778C137.45 55.4778 142.222 60.25 142.222 66.1278C142.222 72.0055 137.45 76.7778 131.572 76.7778C125.694 76.7778 120.922 72.0055 120.922 66.1278C120.922 60.25 125.694 55.4778 131.572 55.4778Z" fill="#E6E6E6"/>
</g>
</g>
<defs>
<clipPath id="clip0_1073_17706">
<rect width="297" height="236" fill="white"/>
</clipPath>
</defs>
</svg>
