<svg width="305" height="304" viewBox="0 0 305 304" fill="none" xmlns="http://www.w3.org/2000/svg">
<g clip-path="url(#clip0_1260_23423)">
<mask id="mask0_1260_23423" style="mask-type:luminance" maskUnits="userSpaceOnUse" x="0" y="-18" width="339" height="340">
<path d="M339 -17.25H0.5V321.25H339V-17.25Z" fill="white"/>
</mask>
<g mask="url(#mask0_1260_23423)">
<path d="M258.872 153.696C308.092 182.607 308.092 229.482 258.871 258.393C209.651 287.305 129.849 287.305 80.6287 258.394C31.4085 229.482 31.4091 182.608 80.6293 153.696C129.85 124.785 209.652 124.785 258.872 153.696Z" fill="#F5F5F5"/>
<path d="M81.7203 206.108C89.0133 210.318 89.0133 217.145 81.7203 221.356C74.4268 225.566 62.6024 225.566 55.31 221.356C48.0165 217.145 48.0165 210.318 55.31 206.108C62.603 201.897 74.4274 201.897 81.7203 206.108Z" fill="#E2E2E2"/>
<path d="M97.726 215.785L163.882 253.98C165.231 254.759 167.419 254.759 168.768 253.98L280.757 189.323C282.106 188.544 282.106 187.281 280.757 186.502L214.601 148.307C213.252 147.528 211.064 147.528 209.715 148.307L97.726 212.964C96.3765 213.742 96.3765 215.006 97.726 215.785Z" fill="#E2E2E2"/>
<g opacity="0.999998">
<path d="M264.686 175.626L260.078 172.963C260.078 172.963 257.335 161.564 258.428 151.308C259.964 136.889 267.725 130.606 273.065 132.707C276.618 134.104 277.72 138.146 271.748 146.734C268.224 151.801 263.896 162.355 264.686 175.626Z" fill="#0F9A49"/>
<path d="M264.686 175.626L260.078 172.963C260.078 172.963 257.335 161.564 258.428 151.308C259.964 136.889 267.725 130.606 273.065 132.707C276.618 134.104 277.72 138.146 271.748 146.734C268.224 151.801 263.896 162.355 264.686 175.626Z" fill="#0F9A49"/>
<path d="M262.777 170.026C262.792 170.025 262.806 170.023 262.821 170.021C262.994 169.988 263.109 169.821 263.076 169.648C260.549 156.347 265.195 141.402 270.949 135.183C271.068 135.054 271.061 134.851 270.93 134.731C270.801 134.613 270.598 134.62 270.478 134.75C264.62 141.082 259.884 156.271 262.448 169.767C262.478 169.925 262.621 170.034 262.777 170.026Z" fill="white"/>
<path d="M276.76 182.598C277.488 182.969 279.424 181.312 279.964 180.909C280.888 180.219 281.617 179.271 282.081 178.217C282.619 176.991 282.705 175.702 282.451 174.388C282.319 173.707 282.093 173.048 281.868 172.392C281.647 171.747 281.427 171.103 281.206 170.458C280.987 169.823 280.767 169.164 280.818 168.494C280.922 167.143 282.065 166.144 283.107 165.278C284.259 164.322 285.446 163.075 285.358 161.46C285.29 160.214 284.586 159.089 283.765 158.15C282.943 157.211 281.983 156.393 281.233 155.395C280.693 154.678 280.257 153.825 280.293 152.926C280.316 152.369 280.519 151.834 280.761 151.331C281.278 150.251 281.982 149.25 282.319 148.1C282.655 146.95 282.528 145.547 281.605 144.783C280.848 144.156 279.767 144.117 278.791 144.232C277.888 144.337 277.023 144.791 276.252 145.272C273.76 146.828 272.449 149.939 269.783 151.173C268.755 151.649 267.61 151.8 266.53 152.144C265.451 152.488 264.363 153.104 263.908 154.141C263.01 156.186 264.987 158.552 264.392 160.705C263.866 162.61 262.08 163.42 261.143 165.16C260.733 165.922 260.673 166.781 260.788 167.638C260.984 169.089 261.251 170.147 262.032 171.732C262.677 173.041 264.494 175.517 264.494 175.517C264.494 175.517 276.649 182.541 276.76 182.598Z" fill="#0F9A49"/>
<path d="M276.76 182.598C277.488 182.969 279.424 181.311 279.964 180.908C280.888 180.218 281.617 179.271 282.081 178.217C282.619 176.991 282.705 175.701 282.451 174.388C282.319 173.707 282.093 173.047 281.868 172.391C281.647 171.746 281.427 171.102 281.206 170.458C280.987 169.822 280.767 169.164 280.818 168.494C280.922 167.143 282.065 166.143 283.107 165.278C284.259 164.321 285.446 163.075 285.358 161.46C285.29 160.214 284.586 159.089 283.765 158.15C282.943 157.211 281.983 156.393 281.233 155.395C280.693 154.678 280.257 153.825 280.293 152.926C280.316 152.369 280.519 151.834 280.761 151.331C281.278 150.251 281.982 149.249 282.319 148.099C282.655 146.95 282.528 145.547 281.605 144.783C280.848 144.156 279.767 144.117 278.791 144.232C277.888 144.337 277.023 144.791 276.252 145.272C273.76 146.828 272.449 149.939 269.783 151.173C268.755 151.649 267.61 151.8 266.53 152.144C265.451 152.488 264.363 153.104 263.908 154.141C263.01 156.186 264.987 158.552 264.392 160.705C263.866 162.61 262.08 163.419 261.143 165.16C260.733 165.921 260.673 166.78 260.788 167.638C260.984 169.088 261.251 170.146 262.032 171.731C262.677 173.041 264.494 175.516 264.494 175.516C264.494 175.516 276.649 182.541 276.76 182.598Z" fill="#0A622E"/>
<path d="M269.706 178.921C269.71 178.921 269.714 178.921 269.714 178.921C269.894 178.905 270.023 178.748 270.008 178.573C268.841 165.922 274.108 151.627 278.246 147.342C278.368 147.215 278.366 147.012 278.239 146.889C278.111 146.767 277.91 146.771 277.786 146.897C273.565 151.268 268.188 165.803 269.37 178.631C269.386 178.803 269.535 178.93 269.706 178.921Z" fill="white"/>
<path d="M270.962 163.323C270.993 163.322 271.024 163.316 271.056 163.304C275.064 161.84 280.13 161.362 280.18 161.358C280.356 161.342 280.486 161.185 280.47 161.01C280.453 160.834 280.313 160.702 280.122 160.72C280.07 160.725 274.925 161.211 270.836 162.704C270.67 162.764 270.585 162.948 270.645 163.114C270.695 163.249 270.825 163.33 270.962 163.323Z" fill="white"/>
</g>
<path d="M99.9873 208.765C99.9873 210.434 101.237 212.509 102.778 213.398L163.533 248.482C165.074 249.372 167.573 249.372 169.114 248.482L276.096 186.715C277.638 185.826 278.887 183.751 278.887 182.082C278.887 180.413 277.638 178.337 276.096 177.447L215.342 142.364C213.801 141.474 211.302 141.474 209.761 142.364L102.778 204.131C101.236 205.02 99.9873 207.095 99.9873 208.765Z" fill="#374E57"/>
<path d="M102.777 207.353L163.532 242.436C165.073 243.326 167.572 243.326 169.113 242.436L276.096 180.67C277.638 179.78 277.638 178.338 276.096 177.448L215.341 142.364C213.801 141.474 211.301 141.474 209.76 142.364L102.777 204.131C101.236 205.02 101.236 206.463 102.777 207.353Z" fill="#42626B"/>
<path d="M166.326 243.109V249.148C165.314 249.148 164.301 248.928 163.535 248.484L102.777 213.398C101.237 212.509 99.9863 210.434 99.9863 208.765C99.9863 207.199 101.089 205.278 102.493 204.311C101.243 205.207 101.34 206.522 102.777 207.354L163.535 242.439C164.301 242.884 165.314 243.109 166.326 243.109Z" fill="#253840"/>
<path d="M97.3697 204.231C95.9237 203.396 96.0027 201.986 96.0027 200.207L96.0022 116.289C96.0022 114.509 97.2518 112.345 98.7925 111.456L205.775 49.689C207.316 48.7993 209.738 48.7547 211.184 49.5897C212.63 50.4246 212.552 51.8339 212.552 53.6133V137.531C212.552 139.311 211.302 141.475 209.761 142.365L102.778 204.131C101.236 205.02 98.8157 205.065 97.3697 204.231Z" fill="#364E57"/>
<path d="M212.553 53.6105C212.553 51.8345 211.302 51.1146 209.762 52.0004L102.777 113.77C102.006 114.215 101.306 114.981 100.806 115.856L96.8234 113.539H96.8184C97.3239 112.664 98.024 111.898 98.7946 111.453L205.774 49.6884C207.315 48.7982 209.736 48.753 211.182 49.5886C212.628 50.4241 212.553 51.8345 212.553 53.6105Z" fill="#41626C"/>
<path d="M102.449 204.299C100.908 205.02 98.7172 205.007 97.3706 204.228C95.9269 203.397 96.0041 201.986 96.0041 200.207V116.286C96.0041 115.397 96.3133 114.411 96.8227 113.541L100.805 115.847V115.853C100.303 116.73 99.9866 117.709 99.9866 118.599V202.52C99.9866 204.17 101.063 204.911 102.449 204.299Z" fill="#25393F"/>
<path d="M104.279 116.987L207.424 57.4513C208.35 56.9176 209.099 57.3504 209.099 58.4183V131.674C209.099 132.742 208.35 134.04 207.424 134.573L104.279 194.108C103.355 194.642 102.605 194.209 102.605 193.141V119.887C102.605 118.819 103.355 117.521 104.279 116.987Z" fill="#FAFAFA"/>
<path d="M110.5 204.295L209.803 146.963C210.574 146.518 211.824 146.518 212.594 146.963L214.248 147.872C215.018 148.317 215.018 149.038 214.248 149.482L114.93 206.805C114.159 207.25 112.909 207.25 112.138 206.805L110.5 205.906C109.73 205.461 109.73 204.74 110.5 204.295Z" fill="#25393F"/>
<path d="M118.289 208.927L217.592 151.594C218.362 151.15 219.504 151.088 220.141 151.456L245.988 166.378C246.625 166.746 246.518 167.406 245.748 167.851L146.561 225.105C145.79 225.55 144.647 225.614 144.008 225.248L118.052 210.395C117.412 210.029 117.519 209.372 118.289 208.927Z" fill="#25393F"/>
<path d="M204.336 175.674L207.445 173.88C207.577 173.803 207.588 173.686 207.471 173.618L204.497 171.902C204.379 171.834 204.177 171.841 204.046 171.917L200.936 173.712C200.804 173.788 200.792 173.905 200.91 173.973L203.884 175.69C204.002 175.758 204.204 175.751 204.336 175.674ZM199.796 169.464L196.687 171.259C196.555 171.335 196.542 171.452 196.66 171.52L199.634 173.238C199.752 173.305 199.954 173.298 200.086 173.222L203.196 171.426C203.328 171.35 203.34 171.234 203.223 171.166L200.248 169.449C200.13 169.381 199.928 169.388 199.796 169.464ZM189.751 175.263L184.489 178.301C184.357 178.377 184.346 178.494 184.463 178.562L187.437 180.279C187.555 180.347 187.757 180.339 187.889 180.263L193.151 177.226C193.283 177.149 193.295 177.033 193.177 176.964L190.203 175.248C190.085 175.18 189.882 175.187 189.751 175.263ZM195.251 172.087L192.142 173.883C192.011 173.959 191.998 174.075 192.116 174.142L195.091 175.86C195.208 175.929 195.41 175.921 195.542 175.845L198.651 174.05C198.784 173.974 198.796 173.857 198.678 173.789L195.704 172.073C195.587 172.004 195.384 172.011 195.251 172.087ZM183.055 179.13L179.946 180.924C179.814 181 179.801 181.118 179.919 181.185L182.893 182.903C183.011 182.971 183.213 182.963 183.345 182.887L186.454 181.092C186.586 181.016 186.598 180.899 186.48 180.832L183.506 179.114C183.389 179.046 183.186 179.054 183.055 179.13ZM178.51 181.752L175.401 183.548C175.269 183.624 175.257 183.741 175.374 183.809L178.348 185.526C178.466 185.594 178.668 185.587 178.801 185.511L181.91 183.716C182.042 183.64 182.053 183.522 181.935 183.455L178.962 181.738C178.845 181.67 178.642 181.676 178.51 181.752ZM190.169 188.761L193.279 186.966C193.41 186.889 193.423 186.772 193.305 186.705L190.331 184.987C190.213 184.919 190.011 184.926 189.879 185.003L186.77 186.797C186.637 186.873 186.625 186.99 186.743 187.058L189.717 188.776C189.834 188.844 190.037 188.837 190.169 188.761ZM185.625 191.384L188.734 189.589C188.866 189.513 188.878 189.396 188.761 189.329L185.786 187.611C185.669 187.544 185.467 187.55 185.335 187.627L182.225 189.422C182.093 189.498 182.082 189.615 182.199 189.682L185.173 191.399C185.291 191.467 185.493 191.461 185.625 191.384ZM181.081 194.007L184.19 192.213C184.322 192.137 184.334 192.02 184.216 191.952L181.242 190.235C181.125 190.167 180.922 190.174 180.79 190.25L177.681 192.045C177.549 192.122 177.537 192.238 177.655 192.306L180.629 194.023C180.747 194.091 180.949 194.083 181.081 194.007ZM176.537 196.631L179.646 194.837C179.778 194.76 179.79 194.643 179.673 194.575L176.697 192.858C176.58 192.791 176.379 192.797 176.246 192.874L173.137 194.669C173.005 194.745 172.993 194.862 173.111 194.93L176.084 196.647C176.202 196.715 176.405 196.707 176.537 196.631ZM199.792 178.298L202.9 176.503C203.033 176.427 203.044 176.31 202.928 176.242L199.952 174.526C199.835 174.458 199.633 174.465 199.501 174.541L196.392 176.336C196.26 176.412 196.248 176.528 196.365 176.596L199.339 178.314C199.457 178.382 199.659 178.374 199.792 178.298ZM194.714 186.137L201.65 182.133C201.781 182.056 201.793 181.939 201.676 181.872L194.451 177.701C194.334 177.633 194.132 177.64 194.001 177.716L190.413 179.787C190.28 179.864 190.269 179.981 190.386 180.049L194.211 182.257C194.328 182.325 194.316 182.441 194.184 182.517L191.314 184.174C191.182 184.251 191.17 184.367 191.287 184.435L194.262 186.152C194.379 186.221 194.581 186.213 194.714 186.137ZM173.966 184.376L170.857 186.172C170.725 186.248 170.713 186.365 170.83 186.432L173.805 188.15C173.922 188.218 174.124 188.211 174.256 188.134L177.366 186.34C177.498 186.263 177.51 186.146 177.392 186.079L174.418 184.361C174.301 184.293 174.099 184.3 173.966 184.376ZM169.422 187L166.313 188.795C166.181 188.871 166.169 188.988 166.286 189.056L169.26 190.774C169.378 190.842 169.58 190.834 169.712 190.758L172.821 188.963C172.953 188.886 172.965 188.77 172.848 188.702L169.874 186.985C169.756 186.917 169.554 186.924 169.422 187ZM144.276 215.012C144.393 215.08 144.596 215.073 144.728 214.997L147.837 213.201C147.969 213.125 147.981 213.008 147.863 212.94L144.889 211.223C144.772 211.155 144.569 211.162 144.437 211.239L141.328 213.033C141.196 213.109 141.184 213.227 141.301 213.294L144.276 215.012ZM133.068 207.989L129.959 209.784C129.827 209.86 129.815 209.977 129.933 210.044L132.907 211.762C133.024 211.829 133.226 211.823 133.359 211.747L136.468 209.952C136.6 209.876 136.612 209.758 136.495 209.691L133.52 207.974C133.402 207.906 133.2 207.913 133.068 207.989ZM138.83 213.249C138.948 213.317 139.15 213.31 139.282 213.234L142.391 211.438C142.523 211.362 142.535 211.245 142.418 211.178L139.444 209.46C139.326 209.392 139.124 209.4 138.992 209.476L135.883 211.27C135.751 211.347 135.739 211.464 135.856 211.531L138.83 213.249ZM151.368 216.069L154.477 214.273C154.609 214.197 154.622 214.08 154.505 214.013L151.53 212.295C151.412 212.228 151.21 212.234 151.078 212.311L147.969 214.106C147.837 214.182 147.825 214.3 147.942 214.367L150.917 216.084C151.034 216.152 151.236 216.146 151.368 216.069ZM146.373 218.708C146.49 218.776 146.693 218.769 146.824 218.693L149.934 216.897C150.066 216.821 150.078 216.705 149.96 216.637L146.986 214.919C146.868 214.852 146.666 214.858 146.534 214.935L143.425 216.73C143.293 216.806 143.281 216.923 143.398 216.991L146.373 218.708ZM137.613 205.365L134.504 207.16C134.371 207.237 134.36 207.353 134.477 207.421L137.451 209.139C137.569 209.207 137.771 209.2 137.903 209.123L141.012 207.328C141.145 207.252 141.156 207.135 141.039 207.067L138.065 205.35C137.947 205.282 137.745 205.289 137.613 205.365ZM160.334 192.248L157.224 194.042C157.092 194.119 157.081 194.236 157.198 194.303L160.172 196.021C160.29 196.089 160.491 196.081 160.624 196.005L163.733 194.209C163.865 194.134 163.877 194.017 163.76 193.95L160.785 192.232C160.668 192.164 160.466 192.172 160.334 192.248ZM142.157 202.741L139.048 204.537C138.915 204.613 138.904 204.729 139.021 204.797L141.995 206.515C142.113 206.583 142.315 206.576 142.447 206.499L145.556 204.704C145.688 204.628 145.7 204.512 145.583 204.444L142.609 202.727C142.491 202.659 142.289 202.665 142.157 202.741ZM164.877 189.624L161.769 191.419C161.636 191.495 161.624 191.611 161.742 191.679L164.717 193.397C164.834 193.465 165.036 193.458 165.168 193.381L168.277 191.586C168.41 191.51 168.421 191.394 168.304 191.326L165.33 189.609C165.212 189.541 165.01 189.548 164.877 189.624ZM155.79 194.87L152.681 196.666C152.548 196.742 152.536 196.859 152.654 196.927L155.628 198.644C155.745 198.711 155.948 198.706 156.08 198.629L159.189 196.834C159.321 196.758 159.333 196.64 159.215 196.573L156.241 194.856C156.124 194.788 155.921 194.794 155.79 194.87ZM151.245 197.494L148.136 199.29C148.004 199.366 147.992 199.483 148.109 199.55L151.084 201.268C151.201 201.335 151.403 201.329 151.535 201.252L154.645 199.458C154.776 199.381 154.789 199.264 154.672 199.196L151.697 197.479C151.58 197.411 151.377 197.418 151.245 197.494ZM146.701 200.118L143.592 201.913C143.46 201.989 143.448 202.106 143.565 202.174L146.54 203.892C146.657 203.96 146.859 203.952 146.991 203.876L150.101 202.081C150.233 202.004 150.245 201.888 150.127 201.82L147.153 200.103C147.035 200.035 146.834 200.042 146.701 200.118ZM167.448 201.879L170.557 200.083C170.69 200.007 170.701 199.89 170.584 199.823L167.61 198.105C167.492 198.037 167.29 198.045 167.158 198.121L164.049 199.916C163.917 199.993 163.905 200.108 164.022 200.176L166.997 201.893C167.114 201.961 167.316 201.954 167.448 201.879ZM209.841 163.664L206.732 165.459C206.6 165.536 206.588 165.652 206.705 165.72L209.68 167.437C209.797 167.504 209.999 167.498 210.132 167.422L213.241 165.626C213.373 165.55 213.384 165.434 213.267 165.366L210.292 163.649C210.175 163.581 209.973 163.588 209.841 163.664ZM204.34 166.84L201.231 168.636C201.099 168.712 201.087 168.828 201.205 168.896L204.179 170.614C204.296 170.681 204.498 170.675 204.631 170.598L207.74 168.803C207.872 168.726 207.884 168.61 207.766 168.542L204.792 166.824C204.674 166.756 204.473 166.764 204.34 166.84ZM214.385 161.041L211.276 162.836C211.145 162.912 211.132 163.028 211.249 163.096L214.224 164.814C214.341 164.882 214.544 164.874 214.675 164.798L217.784 163.004C217.916 162.927 217.929 162.811 217.811 162.742L214.837 161.026C214.72 160.958 214.518 160.965 214.385 161.041ZM189.268 184.374L192.378 182.58C192.51 182.503 192.521 182.385 192.404 182.318L189.429 180.601C189.312 180.533 189.11 180.54 188.978 180.616L185.869 182.411C185.737 182.488 185.725 182.604 185.842 182.672L188.817 184.39C188.935 184.458 189.136 184.45 189.268 184.374ZM219.381 158.402C219.264 158.334 219.062 158.34 218.93 158.416L215.82 160.212C215.688 160.289 215.677 160.405 215.794 160.473L218.768 162.19C218.885 162.258 219.088 162.251 219.22 162.175L222.329 160.38C222.461 160.303 222.473 160.187 222.356 160.12L219.381 158.402ZM171.993 199.255L175.102 197.459C175.234 197.383 175.246 197.267 175.128 197.199L172.153 195.482C172.036 195.414 171.835 195.421 171.703 195.497L168.593 197.292C168.461 197.368 168.449 197.485 168.566 197.553L171.541 199.27C171.658 199.338 171.861 199.331 171.993 199.255ZM227.718 167.081L230.827 165.287C230.96 165.211 230.972 165.093 230.854 165.026L227.88 163.309C227.762 163.241 227.56 163.247 227.428 163.323L224.318 165.119C224.186 165.195 224.175 165.312 224.292 165.379L227.267 167.097C227.384 167.165 227.586 167.158 227.718 167.081ZM218.925 167.252L222.034 165.456C222.166 165.38 222.178 165.264 222.061 165.196L219.086 163.478C218.969 163.41 218.767 163.418 218.635 163.494L215.525 165.288C215.393 165.365 215.381 165.481 215.498 165.55L218.474 167.267C218.59 167.335 218.793 167.327 218.925 167.252ZM223.63 160.855C223.513 160.787 223.311 160.794 223.179 160.87L220.07 162.666C219.938 162.742 219.925 162.859 220.043 162.926L223.018 164.644C223.134 164.711 223.337 164.704 223.469 164.628L226.578 162.833C226.711 162.756 226.722 162.64 226.605 162.572L223.63 160.855ZM224.587 160.303L231.811 164.474C231.928 164.541 232.131 164.534 232.263 164.458L235.372 162.663C235.504 162.587 235.516 162.47 235.399 162.402L228.175 158.231C228.057 158.164 227.855 158.171 227.723 158.247L224.614 160.042C224.482 160.118 224.47 160.235 224.587 160.303ZM214.09 166.118L210.982 167.913C210.849 167.989 210.837 168.106 210.955 168.174L213.929 169.89C214.047 169.958 214.249 169.952 214.381 169.876L217.49 168.08C217.622 168.003 217.634 167.888 217.517 167.82L214.542 166.102C214.425 166.035 214.223 166.042 214.09 166.118ZM179.89 185.864L176.78 187.659C176.648 187.735 176.637 187.852 176.754 187.919L179.727 189.636C179.845 189.704 180.048 189.698 180.18 189.621L183.289 187.826C183.421 187.75 183.433 187.633 183.316 187.566L180.341 185.848C180.224 185.78 180.022 185.787 179.89 185.864ZM222.722 169.72C222.84 169.788 223.042 169.781 223.174 169.705L226.284 167.91C226.415 167.833 226.427 167.717 226.31 167.649L223.336 165.932C223.218 165.864 223.016 165.871 222.884 165.947L219.775 167.742C219.643 167.818 219.631 167.936 219.748 168.003L222.722 169.72ZM184.434 183.24L181.324 185.035C181.192 185.112 181.181 185.227 181.298 185.295L184.272 187.013C184.39 187.081 184.592 187.074 184.724 186.998L187.833 185.203C187.966 185.126 187.977 185.009 187.859 184.942L184.885 183.225C184.768 183.157 184.566 183.163 184.434 183.24ZM148.82 212.388C148.937 212.456 149.139 212.449 149.271 212.373L152.381 210.578C152.512 210.501 152.525 210.385 152.408 210.317L149.433 208.6C149.315 208.532 149.113 208.539 148.981 208.615L145.872 210.41C145.74 210.487 145.728 210.603 145.846 210.671L148.82 212.388ZM143.536 206.852L140.427 208.647C140.295 208.724 140.283 208.84 140.4 208.908L143.375 210.625C143.493 210.693 143.695 210.686 143.827 210.61L146.936 208.815C147.068 208.739 147.08 208.621 146.962 208.554L143.988 206.837C143.871 206.769 143.669 206.776 143.536 206.852ZM153.816 209.749L156.925 207.954C157.057 207.877 157.069 207.761 156.952 207.693L153.977 205.976C153.86 205.908 153.658 205.915 153.525 205.992L150.416 207.787C150.285 207.863 150.272 207.98 150.39 208.048L153.364 209.764C153.482 209.832 153.684 209.826 153.816 209.749ZM158.36 207.125L161.469 205.331C161.601 205.255 161.613 205.137 161.496 205.069L158.521 203.352C158.404 203.284 158.202 203.292 158.07 203.368L154.96 205.163C154.828 205.239 154.816 205.356 154.934 205.424L157.909 207.141C158.026 207.209 158.228 207.201 158.36 207.125ZM162.904 204.503L166.014 202.707C166.146 202.631 166.157 202.514 166.04 202.446L163.065 200.729C162.948 200.661 162.746 200.668 162.614 200.745L159.505 202.54C159.373 202.616 159.36 202.733 159.478 202.8L162.453 204.517C162.57 204.585 162.772 204.579 162.904 204.503ZM148.08 204.229L144.971 206.023C144.839 206.1 144.827 206.217 144.944 206.285L147.919 208.002C148.036 208.07 148.238 208.063 148.371 207.986L151.48 206.192C151.612 206.115 151.624 205.998 151.507 205.93L148.532 204.213C148.415 204.146 148.212 204.152 148.08 204.229ZM152.625 201.605L149.516 203.4C149.384 203.476 149.371 203.593 149.489 203.661L152.463 205.378C152.581 205.446 152.783 205.438 152.915 205.362L156.024 203.568C156.156 203.492 156.168 203.375 156.05 203.307L153.076 201.589C152.959 201.521 152.757 201.529 152.625 201.605ZM170.801 191.111L167.692 192.906C167.56 192.982 167.548 193.099 167.665 193.167L170.64 194.884C170.758 194.952 170.959 194.944 171.092 194.868L174.2 193.074C174.333 192.997 174.344 192.88 174.227 192.812L171.253 191.095C171.136 191.027 170.933 191.034 170.801 191.111ZM166.257 193.734L163.148 195.529C163.016 195.605 163.004 195.722 163.121 195.79L166.095 197.507C166.213 197.575 166.415 197.568 166.547 197.492L169.656 195.698C169.788 195.621 169.801 195.504 169.683 195.436L166.709 193.719C166.591 193.651 166.389 193.658 166.257 193.734ZM175.345 188.487L172.236 190.282C172.104 190.359 172.092 190.474 172.21 190.542L175.184 192.26C175.301 192.328 175.503 192.32 175.635 192.244L178.745 190.45C178.877 190.374 178.889 190.257 178.772 190.189L175.797 188.472C175.679 188.404 175.477 188.411 175.345 188.487ZM157.169 198.982L154.06 200.777C153.927 200.853 153.916 200.969 154.033 201.037L157.008 202.754C157.125 202.822 157.327 202.816 157.459 202.739L160.568 200.944C160.7 200.868 160.713 200.751 160.595 200.683L157.62 198.966C157.503 198.898 157.301 198.905 157.169 198.982ZM161.713 196.358L158.604 198.153C158.472 198.229 158.459 198.345 158.577 198.413L161.552 200.131C161.668 200.199 161.871 200.191 162.003 200.116L165.112 198.32C165.245 198.244 165.256 198.127 165.139 198.06L162.164 196.343C162.047 196.275 161.845 196.282 161.713 196.358ZM155.913 213.446L159.022 211.65C159.154 211.574 159.166 211.457 159.048 211.389L156.074 209.673C155.957 209.604 155.755 209.611 155.622 209.687L152.513 211.483C152.381 211.559 152.369 211.675 152.487 211.743L155.461 213.46C155.578 213.528 155.78 213.522 155.913 213.446ZM131.951 212.315L128.976 210.597C128.859 210.529 128.656 210.536 128.524 210.613L125.415 212.407C125.283 212.483 125.271 212.6 125.388 212.668L128.363 214.386C128.481 214.454 128.683 214.446 128.815 214.37L131.924 212.576C132.056 212.499 132.068 212.382 131.951 212.315ZM137.874 213.801L134.899 212.084C134.782 212.016 134.58 212.023 134.448 212.1L129.664 214.861C129.532 214.937 129.52 215.054 129.638 215.122L132.612 216.839C132.729 216.907 132.931 216.899 133.064 216.823L137.847 214.062C137.98 213.985 137.991 213.869 137.874 213.801ZM127.511 208.922L124.537 207.205C124.419 207.138 124.217 207.144 124.085 207.221L120.258 209.429C120.126 209.506 120.114 209.623 120.231 209.691L123.206 211.408C123.323 211.476 123.526 211.469 123.657 211.393L127.484 209.183C127.616 209.108 127.628 208.99 127.511 208.922ZM130.445 207.229C130.562 207.296 130.764 207.289 130.896 207.213L134.005 205.418C134.138 205.342 134.149 205.226 134.032 205.158L131.057 203.44C130.94 203.372 130.738 203.38 130.605 203.456L127.497 205.251C127.365 205.327 127.352 205.444 127.47 205.512L130.445 207.229ZM143.319 215.564L140.345 213.847C140.227 213.779 140.025 213.786 139.893 213.863L133.914 217.314C133.782 217.391 133.77 217.508 133.887 217.575L136.861 219.293C136.979 219.36 137.181 219.354 137.313 219.277L143.292 215.825C143.425 215.748 143.437 215.632 143.319 215.564ZM145.416 219.261L142.441 217.543C142.324 217.476 142.122 217.481 141.99 217.558L138.163 219.768C138.031 219.844 138.019 219.961 138.136 220.028L141.111 221.745C141.228 221.813 141.431 221.807 141.563 221.73L145.389 219.521C145.521 219.444 145.533 219.328 145.416 219.261ZM164.231 187.722C164.348 187.79 164.55 187.783 164.682 187.707L167.791 185.912C167.923 185.836 167.936 185.719 167.818 185.651L164.844 183.934C164.727 183.866 164.524 183.873 164.392 183.949L161.283 185.744C161.151 185.821 161.139 185.937 161.256 186.005L164.231 187.722ZM155.143 192.97C155.26 193.038 155.462 193.031 155.594 192.954L158.704 191.159C158.836 191.083 158.847 190.966 158.73 190.898L155.755 189.18C155.638 189.113 155.436 189.119 155.304 189.196L152.195 190.991C152.063 191.067 152.051 191.184 152.168 191.252L155.143 192.97ZM134.988 204.605C135.106 204.672 135.308 204.666 135.44 204.589L138.549 202.794C138.681 202.718 138.694 202.602 138.576 202.534L135.602 200.816C135.484 200.749 135.282 200.756 135.15 200.833L132.041 202.627C131.909 202.703 131.897 202.82 132.014 202.888L134.988 204.605ZM159.687 190.346C159.804 190.414 160.006 190.407 160.138 190.331L163.247 188.535C163.379 188.459 163.392 188.342 163.274 188.274L160.3 186.557C160.182 186.49 159.98 186.496 159.848 186.572L156.739 188.368C156.607 188.444 156.595 188.561 156.712 188.629L159.687 190.346ZM150.598 195.593C150.716 195.66 150.918 195.654 151.05 195.577L154.159 193.782C154.291 193.706 154.303 193.59 154.186 193.522L151.212 191.804C151.094 191.737 150.892 191.744 150.76 191.82L147.65 193.615C147.518 193.691 147.507 193.808 147.624 193.876L150.598 195.593ZM147.648 219.443C147.53 219.376 147.328 219.382 147.196 219.459L142.413 222.221C142.28 222.297 142.268 222.414 142.386 222.482L145.361 224.199C145.478 224.266 145.68 224.26 145.812 224.183L150.595 221.422C150.727 221.345 150.739 221.229 150.622 221.161L147.648 219.443ZM144.077 199.358C144.194 199.426 144.396 199.419 144.529 199.343L147.638 197.547C147.77 197.471 147.782 197.355 147.665 197.287L144.69 195.569C144.572 195.502 144.37 195.509 144.238 195.585L141.129 197.38C140.997 197.457 140.985 197.572 141.102 197.64L144.077 199.358ZM139.533 201.982C139.65 202.05 139.852 202.043 139.984 201.967L143.094 200.171C143.226 200.095 143.238 199.977 143.12 199.91L140.146 198.193C140.029 198.125 139.826 198.132 139.694 198.209L136.585 200.004C136.453 200.08 136.441 200.196 136.558 200.264L139.533 201.982ZM231.834 170.839C231.717 170.771 231.515 170.777 231.382 170.853L223.729 175.272C223.597 175.349 223.585 175.465 223.702 175.533L226.677 177.251C226.795 177.319 226.997 177.312 227.129 177.235L234.782 172.817C234.914 172.74 234.927 172.624 234.809 172.557L231.834 170.839ZM221.789 176.638C221.672 176.571 221.469 176.577 221.337 176.654L218.228 178.449C218.096 178.525 218.084 178.642 218.202 178.709L221.176 180.427C221.294 180.494 221.495 180.488 221.628 180.411L224.737 178.616C224.869 178.54 224.881 178.423 224.764 178.356L221.789 176.638ZM160.457 210.822L163.566 209.027C163.698 208.95 163.71 208.833 163.593 208.765L160.618 207.049C160.501 206.981 160.299 206.988 160.167 207.064L157.057 208.859C156.925 208.935 156.914 209.052 157.031 209.12L160.005 210.838C160.123 210.905 160.325 210.898 160.457 210.822ZM212.701 181.885C212.583 181.817 212.381 181.825 212.249 181.901L209.14 183.695C209.008 183.772 208.996 183.889 209.114 183.957L212.088 185.674C212.205 185.742 212.407 185.735 212.539 185.659L215.648 183.864C215.78 183.787 215.793 183.671 215.675 183.603L212.701 181.885ZM236.378 168.215C236.26 168.147 236.059 168.154 235.927 168.231L232.818 170.025C232.686 170.101 232.674 170.219 232.791 170.286L235.765 172.004C235.883 172.071 236.085 172.064 236.217 171.988L239.326 170.193C239.458 170.117 239.47 170 239.354 169.933L236.378 168.215ZM243.897 167.309L236.673 163.138C236.556 163.071 236.354 163.077 236.222 163.153L233.112 164.949C232.981 165.025 232.968 165.142 233.086 165.209L240.31 169.38C240.427 169.447 240.629 169.441 240.761 169.365L243.87 167.569C244.003 167.493 244.014 167.376 243.897 167.309ZM195.72 191.69C195.603 191.621 195.4 191.628 195.268 191.704L191.441 193.914C191.309 193.99 191.298 194.107 191.415 194.174L194.389 195.892C194.507 195.959 194.709 195.953 194.841 195.876L198.668 193.667C198.8 193.592 198.812 193.474 198.695 193.406L195.72 191.69ZM207.2 185.061C207.083 184.993 206.881 185.001 206.749 185.077L201.965 187.839C201.833 187.915 201.821 188.032 201.938 188.099L204.913 189.816C205.03 189.884 205.232 189.876 205.365 189.8L210.148 187.039C210.28 186.963 210.292 186.847 210.175 186.779L207.2 185.061ZM185.196 197.765C185.079 197.697 184.877 197.704 184.745 197.78L159.154 212.555C159.022 212.632 159.01 212.748 159.127 212.815L162.102 214.533C162.219 214.601 162.421 214.594 162.554 214.518L188.145 199.743C188.276 199.666 188.289 199.55 188.171 199.483L185.196 197.765ZM158.171 213.368C158.054 213.3 157.851 213.307 157.719 213.384L153.892 215.593C153.76 215.669 153.749 215.785 153.866 215.854L156.84 217.571C156.958 217.639 157.16 217.631 157.292 217.555L161.119 215.346C161.25 215.27 161.263 215.153 161.145 215.085L158.171 213.368ZM190.458 194.727C190.341 194.659 190.138 194.666 190.006 194.742L186.18 196.951C186.048 197.028 186.036 197.144 186.153 197.212L189.128 198.929C189.245 198.997 189.447 198.99 189.579 198.914L193.406 196.705C193.539 196.629 193.55 196.512 193.433 196.444L190.458 194.727ZM152.909 216.406C152.792 216.338 152.59 216.345 152.457 216.422L148.631 218.63C148.498 218.707 148.487 218.824 148.604 218.892L151.579 220.608C151.696 220.676 151.898 220.669 152.03 220.593L155.857 218.384C155.989 218.308 156.001 218.191 155.884 218.124L152.909 216.406ZM200.982 188.652C200.864 188.584 200.662 188.591 200.53 188.667L196.703 190.876C196.572 190.952 196.559 191.069 196.677 191.137L199.651 192.854C199.768 192.922 199.971 192.915 200.103 192.839L203.93 190.63C204.062 190.553 204.073 190.437 203.956 190.369L200.982 188.652ZM217.245 179.261C217.128 179.193 216.926 179.201 216.793 179.277L213.685 181.073C213.552 181.148 213.541 181.266 213.658 181.333L216.632 183.051C216.748 183.118 216.952 183.111 217.084 183.035L220.193 181.24C220.325 181.163 220.337 181.047 220.22 180.979L217.245 179.261ZM227.423 172.158L230.533 170.364C230.665 170.287 230.677 170.17 230.56 170.102L227.585 168.385C227.468 168.317 227.266 168.325 227.134 168.401L224.024 170.196C223.892 170.272 223.88 170.389 223.997 170.457L226.972 172.174C227.089 172.242 227.292 172.235 227.423 172.158ZM208.88 173.051L211.989 171.256C212.121 171.179 212.133 171.063 212.016 170.996L209.041 169.278C208.924 169.21 208.722 169.217 208.59 169.293L205.481 171.088C205.348 171.165 205.337 171.282 205.454 171.349L208.428 173.066C208.546 173.134 208.748 173.128 208.88 173.051ZM196.81 189.833L205.899 184.586C206.03 184.51 206.043 184.393 205.926 184.325L202.951 182.607C202.833 182.54 202.631 182.546 202.498 182.623L193.411 187.871C193.279 187.946 193.267 188.063 193.384 188.131L196.359 189.848C196.476 189.916 196.678 189.909 196.81 189.833ZM222.428 174.797C222.545 174.865 222.747 174.858 222.879 174.782L225.988 172.987C226.121 172.911 226.133 172.794 226.015 172.726L223.041 171.009C222.924 170.941 222.721 170.948 222.589 171.024L219.48 172.819C219.348 172.896 219.335 173.012 219.453 173.08L222.428 174.797ZM218.63 172.329L221.74 170.533C221.871 170.457 221.884 170.341 221.766 170.273L218.791 168.555C218.674 168.487 218.472 168.495 218.34 168.571L215.231 170.366C215.098 170.443 215.086 170.559 215.204 170.627L218.178 172.344C218.295 172.412 218.498 172.405 218.63 172.329ZM192.265 192.457L195.376 190.661C195.508 190.585 195.519 190.469 195.402 190.401L192.427 188.684C192.31 188.616 192.108 188.623 191.975 188.699L188.866 190.494C188.734 190.57 188.723 190.687 188.84 190.755L191.815 192.472C191.932 192.539 192.133 192.533 192.265 192.457ZM212.382 180.597C212.5 180.665 212.702 180.658 212.834 180.582L215.943 178.787C216.075 178.71 216.087 178.593 215.97 178.525L212.996 176.809C212.878 176.74 212.676 176.747 212.544 176.823L209.435 178.619C209.303 178.695 209.291 178.811 209.409 178.879L212.382 180.597ZM169.545 205.575L172.654 203.779C172.786 203.703 172.798 203.587 172.681 203.519L169.707 201.801C169.589 201.733 169.387 201.74 169.255 201.817L166.146 203.612C166.014 203.688 166.002 203.805 166.119 203.872L169.094 205.59C169.211 205.657 169.413 205.651 169.545 205.575ZM174.09 202.951L177.198 201.156C177.33 201.08 177.343 200.963 177.225 200.895L174.25 199.177C174.133 199.11 173.931 199.116 173.798 199.193L170.69 200.988C170.558 201.064 170.546 201.181 170.663 201.248L173.638 202.966C173.755 203.033 173.958 203.028 174.09 202.951ZM165.001 208.198L168.11 206.403C168.243 206.327 168.254 206.21 168.137 206.143L165.162 204.425C165.045 204.357 164.843 204.364 164.711 204.44L161.602 206.235C161.469 206.311 161.457 206.429 161.575 206.496L164.55 208.214C164.667 208.281 164.869 208.275 165.001 208.198ZM183.177 197.704L186.287 195.909C186.419 195.833 186.431 195.715 186.313 195.648L183.339 193.931C183.222 193.863 183.019 193.87 182.887 193.946L179.778 195.741C179.647 195.817 179.634 195.934 179.752 196.002L182.726 197.72C182.843 197.787 183.046 197.78 183.177 197.704ZM178.633 200.327L181.743 198.532C181.875 198.456 181.886 198.34 181.769 198.272L178.795 196.555C178.678 196.487 178.475 196.493 178.343 196.569L175.233 198.364C175.101 198.441 175.089 198.557 175.207 198.625L178.182 200.343C178.299 200.411 178.501 200.403 178.633 200.327ZM187.722 195.08L190.831 193.285C190.962 193.209 190.975 193.092 190.858 193.025L187.883 191.307C187.766 191.239 187.564 191.246 187.431 191.322L184.322 193.117C184.19 193.193 184.179 193.311 184.296 193.379L187.27 195.096C187.388 195.163 187.59 195.157 187.722 195.08ZM212.52 158.583C212.637 158.65 212.839 158.643 212.971 158.567L216.081 156.772C216.213 156.696 216.224 156.579 216.106 156.512L215.315 156.054C215.198 155.986 214.996 155.993 214.863 156.069L211.754 157.865C211.622 157.941 211.611 158.058 211.728 158.126L212.52 158.583ZM189.934 172.883C190.05 172.95 190.252 172.944 190.385 172.867L193.495 171.072C193.626 170.996 193.638 170.879 193.521 170.812L190.546 169.095C190.429 169.027 190.226 169.033 190.094 169.11L186.985 170.905C186.853 170.981 186.841 171.098 186.959 171.166L189.934 172.883ZM199.022 167.636C199.139 167.704 199.342 167.697 199.473 167.62L202.582 165.825C202.714 165.749 202.727 165.633 202.609 165.564L199.634 163.846C199.517 163.779 199.315 163.786 199.183 163.862L196.073 165.658C195.941 165.734 195.929 165.85 196.047 165.918L199.022 167.636ZM184.384 176.087C184.501 176.154 184.704 176.147 184.836 176.071L187.946 174.276C188.078 174.2 188.089 174.083 187.972 174.015L184.998 172.298C184.88 172.23 184.678 172.237 184.546 172.313L181.437 174.108C181.305 174.184 181.293 174.302 181.41 174.369L184.384 176.087ZM194.478 170.259C194.595 170.327 194.797 170.321 194.929 170.244L198.038 168.448C198.17 168.372 198.182 168.256 198.065 168.188L195.091 166.471C194.973 166.403 194.77 166.41 194.639 166.486L191.53 168.281C191.398 168.358 191.385 168.474 191.502 168.542L194.478 170.259ZM175.296 181.334C175.414 181.402 175.616 181.395 175.748 181.318L178.857 179.523C178.989 179.447 179.001 179.33 178.883 179.262L175.91 177.545C175.792 177.478 175.589 177.483 175.457 177.56L172.348 179.356C172.217 179.432 172.204 179.549 172.321 179.617L175.296 181.334ZM179.84 178.71C179.957 178.778 180.159 178.771 180.291 178.695L183.401 176.9C183.533 176.823 183.545 176.706 183.428 176.638L180.453 174.922C180.336 174.854 180.134 174.86 180.002 174.936L176.893 176.732C176.76 176.809 176.748 176.925 176.865 176.993L179.84 178.71ZM203.431 163.83C203.549 163.898 203.751 163.891 203.883 163.814L206.992 162.018C207.124 161.942 207.136 161.826 207.019 161.758L206.226 161.301C206.109 161.234 205.907 161.24 205.775 161.316L202.666 163.112C202.534 163.189 202.522 163.304 202.639 163.372L203.431 163.83ZM217.064 155.959C217.181 156.026 217.383 156.02 217.516 155.944L220.624 154.148C220.757 154.072 220.768 153.955 220.651 153.887L219.859 153.431C219.741 153.363 219.54 153.369 219.407 153.445L216.298 155.241C216.166 155.317 216.154 155.434 216.272 155.502L217.064 155.959ZM223.312 159.566C223.43 159.634 223.631 159.628 223.764 159.551L226.874 157.756C227.005 157.679 227.017 157.563 226.9 157.496L223.925 155.778C223.808 155.71 223.606 155.717 223.473 155.793L220.364 157.588C220.232 157.664 220.22 157.782 220.338 157.849L223.312 159.566ZM231.968 169.535L235.077 167.74C235.209 167.664 235.221 167.547 235.104 167.479L232.129 165.761C232.012 165.693 231.809 165.701 231.677 165.777L228.568 167.572C228.436 167.648 228.424 167.765 228.542 167.833L231.516 169.551C231.633 169.618 231.835 169.611 231.968 169.535ZM207.975 161.206C208.092 161.273 208.295 161.267 208.427 161.191L211.536 159.396C211.668 159.32 211.68 159.202 211.563 159.134L210.771 158.677C210.654 158.61 210.451 158.617 210.319 158.693L207.21 160.488C207.079 160.565 207.066 160.681 207.184 160.749L207.975 161.206ZM170.752 183.957C170.869 184.024 171.072 184.018 171.204 183.942L174.313 182.146C174.445 182.07 174.457 181.954 174.34 181.886L171.365 180.168C171.248 180.101 171.046 180.108 170.913 180.184L167.804 181.979C167.672 182.055 167.66 182.172 167.778 182.24L170.752 183.957Z" fill="#41626C"/>
<path d="M184.2 207.393L184.837 207.761L201.77 217.535L231.883 200.149L232.51 199.792L214.94 189.65L184.2 207.393Z" fill="#364E57"/>
<path d="M184.837 207.761L201.77 217.535L231.883 200.149L214.94 190.374L184.837 207.761Z" fill="#253840"/>
<path d="M59.8184 214.137V212.705H60.1716C60.5829 211.872 61.3535 211.085 62.4903 210.429C66.0553 208.371 71.834 208.371 75.3984 210.429C76.5352 211.085 77.3059 211.872 77.7172 212.705H78.0664V214.091C78.0952 215.461 77.2089 216.836 75.3984 217.881C71.834 219.939 66.0553 219.939 62.4903 217.881C60.7002 216.848 59.8105 215.492 59.8184 214.137Z" fill="#253840"/>
<path d="M75.3974 208.979C71.833 206.921 66.0536 206.921 62.4892 208.979C58.9248 211.037 58.9248 214.373 62.4892 216.431C66.0536 218.489 71.833 218.489 75.3974 216.431C78.9618 214.373 78.9618 211.036 75.3974 208.979Z" fill="#42626B"/>
<path d="M71.2942 163.081L71.2925 212.081C71.2925 212.428 71.0629 212.775 70.6043 213.04C69.6869 213.569 68.2003 213.569 67.283 213.04C66.8243 212.775 66.5947 212.428 66.5947 212.081L66.5959 163.081H71.2942Z" fill="#374E57"/>
<path d="M66.5947 169.007V173.617L71.2931 176.323L71.2942 171.726L66.5947 169.007Z" fill="#253840"/>
<path d="M89.5374 131.166L82.6382 127.183C82.3319 127.006 82.1079 126.961 81.9872 127.032C81.8427 127.117 81.2678 127.449 81.1466 127.518C81.0004 127.601 81.0027 127.851 81.1883 128.235L82.8667 131.709L81.6142 132.859C81.0399 133.386 81.1217 134.128 81.7965 134.518L88.6951 138.501L89.5374 138.014V131.166Z" fill="#0F9A49"/>
<path d="M89.5379 131.166L82.6387 127.183C82.3324 127.006 82.1084 126.961 81.9877 127.032C81.8432 127.117 81.2683 127.449 81.147 127.518C81.0009 127.601 81.0032 127.851 81.1888 128.235L82.8672 131.709L81.6147 132.859C81.0404 133.386 81.1222 134.128 81.797 134.518L88.6956 138.501L89.5379 138.014V131.166Z" fill="#78EFDE"/>
<path d="M81.7962 127.67C81.1214 127.281 80.8489 127.533 81.1874 128.235L82.8658 131.709L81.6134 132.859C81.0391 133.386 81.1214 134.129 81.7962 134.518L88.6954 138.501V131.653L81.7962 127.67Z" fill="#00E1C1"/>
<path d="M89.5055 153.115C89.0576 153.115 88.6948 152.752 88.6948 152.304V129.388C88.6948 128.94 89.0576 128.577 89.5055 128.577C89.9529 128.577 90.3162 128.94 90.3162 129.388V152.304C90.3162 152.752 89.9529 153.115 89.5055 153.115Z" fill="#42626B"/>
<path d="M83.6347 158.697L92.3228 163.719C92.2777 163.786 92.2156 163.854 92.1536 163.893L76.9549 172.666C76.8252 172.74 76.7236 172.683 76.7236 172.531V161.58C76.7236 159.673 77.1637 157.552 77.993 155.442L83.6347 158.697Z" fill="#0F9A49"/>
<path d="M83.6347 158.697L92.3228 163.718C92.2777 163.786 92.2156 163.853 92.1536 163.893L76.9549 172.666C76.8252 172.739 76.7236 172.683 76.7236 172.53V161.58C76.7236 159.673 77.1637 157.552 77.993 155.442L83.6347 158.697Z" fill="#13C85F"/>
<path d="M92.3893 151.503V163.756L77.9951 155.444C78.0098 155.404 78.0261 155.364 78.0419 155.324C79.5855 151.469 82.1874 148.199 85.0083 146.576C86.1648 145.907 87.2604 145.569 88.2635 145.569C90.8079 145.569 92.3893 147.842 92.3893 151.503Z" fill="#0F9A49"/>
<path d="M92.3893 151.503V163.756L77.9951 155.444C78.0098 155.404 78.0261 155.363 78.0419 155.324C79.5855 151.468 82.1874 148.199 85.0083 146.576C86.1648 145.907 87.2604 145.568 88.2635 145.568C90.8079 145.568 92.3893 147.842 92.3893 151.503Z" fill="#0F9A49"/>
<path d="M108.022 177.436L108.021 176.342H107.917V176.498C107.853 176.201 107.759 175.906 107.632 175.612C107.057 174.271 105.847 172.986 103.998 171.918L93.7124 165.98C93.2842 165.733 92.592 165.733 92.1621 165.98L76.4354 175.059C76.2695 174.911 76.0879 174.764 75.9355 174.508V175.611C75.9355 175.773 76.0427 175.934 76.2566 176.059L86.543 181.996C89.295 183.586 92.895 184.367 96.3809 184.321C99.3987 184.281 102.332 183.622 104.566 182.329C106.879 181 108.018 179.237 108.018 177.436H108.022Z" fill="#0F9A49"/>
<path d="M108.022 177.436L108.021 176.342H107.917V176.498C107.853 176.201 107.759 175.906 107.632 175.612C107.057 174.271 105.847 172.986 103.998 171.918L93.7124 165.98C93.2842 165.733 92.592 165.733 92.1621 165.98L76.4354 175.059C76.2695 174.911 76.0879 174.764 75.9355 174.508V175.611V175.611C75.9355 175.773 76.0427 175.934 76.2566 176.059L86.543 181.996C89.295 183.586 92.895 184.367 96.3809 184.321C99.3987 184.281 102.332 183.622 104.566 182.329C106.879 181 108.018 179.237 108.018 177.436H108.022Z" fill="#13C85F"/>
<path d="M107.632 175.612C107.057 174.271 105.847 172.986 103.999 171.918L93.7126 165.98C93.2844 165.733 92.5916 165.733 92.1617 165.98L76.4355 175.059L86.5426 180.895C89.2946 182.485 92.8945 183.266 96.3811 183.219C99.3988 183.178 102.332 182.519 104.567 181.228C106.642 180.034 107.776 178.492 107.985 176.886C107.933 176.459 107.815 176.033 107.632 175.612Z" fill="#0F9A49"/>
<path d="M107.632 175.612C107.057 174.271 105.846 172.986 103.998 171.918L93.7126 165.98C93.2844 165.733 92.5916 165.733 92.1617 165.98L76.4355 175.059L86.5426 180.895C89.2946 182.485 92.894 183.266 96.3805 183.219C99.3983 183.178 102.331 182.519 104.566 181.228C106.642 180.034 107.775 178.492 107.984 176.886C107.932 176.459 107.814 176.033 107.632 175.612Z" fill="#13C85F"/>
<path d="M107.985 176.886C107.933 176.46 107.814 176.033 107.632 175.612C107.057 174.271 105.847 172.986 103.999 171.918L93.7131 165.98C93.2849 165.733 92.5916 165.733 92.1623 165.98L76.4361 175.059L76.2567 174.957C75.8285 174.71 75.8285 174.309 76.2567 174.061L92.1623 164.879C92.5916 164.632 93.2849 164.632 93.7131 164.879L103.999 170.817C105.847 171.884 107.057 173.17 107.632 174.511C107.825 174.957 107.947 175.41 107.996 175.863C108.033 176.205 108.029 176.547 107.985 176.886Z" fill="#0F9A49"/>
<path d="M107.985 176.886C107.933 176.46 107.814 176.033 107.632 175.612C107.057 174.271 105.847 172.986 103.999 171.918L93.7131 165.98C93.2849 165.733 92.5916 165.733 92.1623 165.98L76.4361 175.059L76.2567 174.957C75.8285 174.71 75.8285 174.309 76.2567 174.061L92.1623 164.879C92.5916 164.632 93.2849 164.632 93.7131 164.879L103.999 170.817C105.847 171.884 107.057 173.17 107.632 174.511C107.825 174.957 107.947 175.41 107.996 175.863C108.033 176.205 108.029 176.547 107.985 176.886Z" fill="#0F9A49"/>
<path d="M76.603 173.905L92.508 164.722L92.1554 163.891L76.9556 172.668L76.603 173.905Z" fill="#0F9A49"/>
<path d="M76.603 173.905L92.508 164.722L92.1554 163.891L76.9556 172.668L76.603 173.905Z" fill="#00CAAD"/>
<path d="M90.9875 150.773C90.9875 150.531 90.8182 150.239 90.6089 150.118L71.2433 138.938C71.0346 138.817 70.6955 138.817 70.4868 138.938L70.0597 139.183C69.851 139.304 69.6812 139.598 69.6812 139.839V154.683C69.6812 154.922 69.8515 155.218 70.0597 155.339L89.4247 166.519C89.6329 166.639 89.9742 166.639 90.1824 166.519L90.6089 166.272C90.8171 166.151 90.9875 165.856 90.9875 165.617V150.773Z" fill="#F5F5F5"/>
<path d="M90.876 150.4L89.8019 151.02L69.792 139.466C69.8603 139.348 69.955 139.244 70.0588 139.183L70.4865 138.938C70.6947 138.816 71.0349 138.816 71.2425 138.938L90.6075 150.118C90.713 150.178 90.8078 150.282 90.876 150.4Z" fill="#E2E2E2"/>
<path d="M89.7144 166.6C89.7376 166.605 89.7602 166.605 89.7879 166.605H89.7653C89.7427 166.605 89.7313 166.605 89.7144 166.6Z" fill="#0F9A49"/>
<path d="M89.8045 151.017L89.607 151.136C89.7255 151.181 89.8045 151.3 89.8045 151.458V166.301C89.8045 166.425 89.7594 166.509 89.686 166.549C89.6352 166.572 89.5732 166.577 89.5055 166.555C89.4773 166.543 89.4491 166.532 89.4265 166.521L70.0587 155.339C69.8499 155.215 69.6807 154.921 69.6807 154.685V139.841C69.6807 139.717 69.7258 139.582 69.7935 139.463L89.8045 151.017Z" fill="#ECECEC"/>
<path d="M89.8022 151.019L80.8342 154.37C80.195 154.608 79.4768 154.371 79.1044 153.8L77.6641 151.594L69.7206 139.424L77.377 151.677L69.6812 154.688C69.6834 154.81 69.728 154.946 69.7996 155.066L77.3984 151.711L79.0717 154.389C79.457 155.003 80.2345 155.244 80.8968 154.95L82.0883 154.424L89.6854 166.548C89.757 166.511 89.8022 166.425 89.8022 166.3V166.052L82.1255 154.408L89.8022 151.019Z" fill="#C6C6C6"/>
<path d="M86.4035 153.399C86.4035 153.158 86.2342 152.865 86.0249 152.744L66.6593 141.564C66.4506 141.443 66.1115 141.443 65.9028 141.564L65.4757 141.81C65.267 141.93 65.0972 142.224 65.0972 142.465V157.309C65.0972 157.549 65.2675 157.844 65.4757 157.965L84.8407 169.145C85.0489 169.265 85.3902 169.265 85.5984 169.145L86.0249 168.899C86.2331 168.778 86.4035 168.483 86.4035 168.243V153.399Z" fill="#F5F5F5"/>
<path d="M86.293 153.027L85.2188 153.647L65.209 142.093C65.2772 141.975 65.372 141.871 65.4758 141.81L65.9035 141.565C66.1117 141.443 66.4518 141.443 66.6595 141.565L86.0245 152.744C86.13 152.805 86.2248 152.909 86.293 153.027Z" fill="#E2E2E2"/>
<path d="M85.1309 169.227C85.1535 169.232 85.1761 169.232 85.2044 169.232H85.1818C85.1592 169.232 85.1478 169.232 85.1309 169.227Z" fill="#0F9A49"/>
<path d="M85.2205 153.645L85.023 153.763C85.1415 153.808 85.2205 153.927 85.2205 154.085V168.928C85.2205 169.052 85.1754 169.137 85.102 169.176C85.0513 169.199 84.9892 169.205 84.9215 169.182C84.8933 169.171 84.8651 169.159 84.8425 169.148L65.4747 157.966C65.2659 157.842 65.0967 157.549 65.0967 157.312V142.469C65.0967 142.345 65.1418 142.209 65.2095 142.091L85.2205 153.645Z" fill="#ECECEC"/>
<path d="M85.2182 153.647L76.2502 156.997C75.611 157.235 74.8928 156.999 74.5204 156.427L73.0801 154.221L65.1367 142.052L72.793 154.304L65.0972 157.315C65.0994 157.437 65.144 157.573 65.2156 157.693L72.8144 154.339L74.4877 157.017C74.873 157.631 75.6505 157.871 76.3128 157.577L77.5043 157.051L85.1014 169.176C85.173 169.138 85.2182 169.052 85.2182 168.926V168.679L77.5416 157.035L85.2182 153.647Z" fill="#C6C6C6"/>
<path d="M81.82 156.026C81.82 155.785 81.6507 155.492 81.4414 155.371L62.0764 144.191C61.8677 144.071 61.5286 144.071 61.3199 144.191L60.8922 144.437C60.6835 144.558 60.5137 144.851 60.5137 145.093V159.936C60.5137 160.176 60.6841 160.472 60.8922 160.592L80.2572 171.772C80.4654 171.893 80.8067 171.893 81.0149 171.772L81.4414 171.526C81.6496 171.406 81.82 171.111 81.82 170.87V156.026Z" fill="#F5F5F5"/>
<path d="M81.7085 155.654L80.6344 156.273L60.6245 144.72C60.6928 144.601 60.7876 144.497 60.8914 144.436L61.319 144.191C61.5272 144.069 61.8674 144.069 62.075 144.191L81.44 155.371C81.5455 155.432 81.6403 155.536 81.7085 155.654Z" fill="#E2E2E2"/>
<path d="M80.5464 171.854C80.569 171.86 80.5917 171.86 80.62 171.86H80.5973C80.5747 171.86 80.5634 171.86 80.5464 171.854Z" fill="#0F9A49"/>
<path d="M80.637 156.272L80.4396 156.39C80.558 156.435 80.637 156.554 80.637 156.712V171.555C80.637 171.679 80.5919 171.764 80.5185 171.803C80.4678 171.826 80.4057 171.831 80.338 171.809C80.3098 171.797 80.2816 171.786 80.259 171.775L60.8912 160.593C60.6824 160.469 60.5132 160.176 60.5132 159.939V145.095C60.5132 144.971 60.5583 144.836 60.626 144.717L80.637 156.272Z" fill="#ECECEC"/>
<path d="M80.6347 156.273L71.6667 159.623C71.0275 159.862 70.3093 159.626 69.9369 159.054L68.4966 156.848L60.5532 144.679L68.2095 156.931L60.5137 159.943C60.5159 160.064 60.5605 160.2 60.6321 160.32L68.2309 156.966L69.9042 159.644C70.2896 160.257 71.067 160.498 71.7293 160.204L72.9208 159.678L80.5179 171.803C80.5895 171.765 80.6347 171.679 80.6347 171.553V171.306L72.9581 159.662L80.6347 156.273Z" fill="#C6C6C6"/>
<path d="M90.3769 145.175C88.8367 144.368 86.7944 144.509 84.5603 145.801C82.0498 147.245 79.7875 149.857 78.2022 152.858C77.8298 153.552 77.5026 154.269 77.2092 154.991C76.3348 157.169 75.827 159.448 75.827 161.58V174.094C75.5449 174.094 75.2685 174.026 75.0541 173.908L52.7729 161.038C52.3498 160.79 52 160.185 52 159.694V147.814C52 141.879 55.9097 134.816 60.7277 132.029C63.0125 130.708 65.0887 130.601 66.6458 131.476L66.6514 131.465L90.3769 145.175Z" fill="#0F9A49"/>
<path d="M90.3769 145.174C88.8367 144.368 86.7944 144.509 84.5603 145.801C82.0498 147.245 79.7875 149.857 78.2022 152.858C77.8298 153.552 77.5026 154.269 77.2092 154.991C76.3348 157.169 75.827 159.448 75.827 161.58V174.094C75.5449 174.094 75.2685 174.026 75.0541 173.907L52.7729 161.038C52.3498 160.789 52 160.185 52 159.694V147.814C52 141.879 55.9097 134.815 60.7277 132.028C63.0125 130.707 65.0887 130.6 66.6458 131.475L66.6514 131.464L90.3769 145.174Z" fill="#13C85F"/>
<path d="M52.7729 161.038L75.0541 173.907C75.2685 174.026 75.5449 174.094 75.827 174.094V161.58C75.827 160.441 75.976 159.26 76.2445 158.075L52.4118 144.315C52.1461 145.497 52 146.676 52 147.814V159.695C52 160.186 52.3498 160.789 52.7729 161.038Z" fill="#11A44E"/>
<path d="M77.2093 154.991C76.3348 157.169 75.8271 159.448 75.8271 161.58V174.094C75.7311 174.094 75.6352 174.082 75.545 174.065C75.5393 173.343 75.5337 169.326 75.5337 161.58C75.5337 152.373 82.614 146.523 84.5604 145.801C82.0498 147.245 79.7875 149.857 78.2022 152.858C77.8298 153.552 77.5026 154.269 77.2093 154.991Z" fill="#0F9A49"/>
<path d="M77.2093 154.991C76.3348 157.169 75.8271 159.448 75.8271 161.58V174.094C75.7311 174.094 75.6352 174.082 75.545 174.065C75.5393 173.343 75.5337 169.326 75.5337 161.58C75.5337 152.373 82.614 146.523 84.5604 145.801C82.0498 147.245 79.7875 149.857 78.2022 152.858C77.8298 153.552 77.5026 154.269 77.2093 154.991Z" fill="#006D5D"/>
<path d="M76.956 172.667C76.8273 172.741 76.7235 172.682 76.7235 172.534V161.581C76.7235 159.672 77.1636 157.553 77.994 155.444C78.0087 155.404 78.0251 155.364 78.0409 155.324C78.3523 154.545 78.7071 153.791 79.1009 153.07C80.6445 150.215 82.7556 147.871 85.0066 146.576C86.1637 145.907 87.2599 145.568 88.263 145.568C88.8971 145.568 89.4714 145.71 89.9769 145.978C91.4985 146.79 92.3882 148.756 92.3882 151.503V163.488C92.3882 163.636 92.2844 163.817 92.1557 163.891L92.5084 164.723C92.5354 164.706 92.5625 164.689 92.5879 164.672C92.7041 164.591 92.8124 164.483 92.9072 164.362C92.9095 164.362 92.91 164.36 92.91 164.358C93.1357 164.073 93.2841 163.703 93.2841 163.379V151.503C93.2841 148.324 92.1614 146.113 90.3781 145.176C88.8339 144.366 86.7962 144.508 84.5598 145.801C82.051 147.244 79.7887 149.855 78.1983 152.858C77.8316 153.551 77.4998 154.266 77.2098 154.991C76.336 157.169 75.8276 159.447 75.8276 161.581V174.091C75.8722 174.091 75.9179 174.09 75.9625 174.086C76.1972 174.07 76.4245 174.009 76.6034 173.905L76.956 172.667Z" fill="#0F9A49"/>
<path d="M76.956 172.667C76.8273 172.741 76.7235 172.681 76.7235 172.533V161.581C76.7235 159.672 77.1636 157.553 77.994 155.444C78.0087 155.404 78.0251 155.364 78.0409 155.324C78.3523 154.545 78.7071 153.791 79.1009 153.07C80.6445 150.215 82.7556 147.871 85.0066 146.576C86.1637 145.907 87.2599 145.568 88.263 145.568C88.8971 145.568 89.4714 145.71 89.9769 145.978C91.4985 146.79 92.3882 148.756 92.3882 151.503V163.488C92.3882 163.636 92.2844 163.817 92.1557 163.891L92.5084 164.722C92.5354 164.706 92.5625 164.689 92.5879 164.672C92.7041 164.591 92.8124 164.483 92.9072 164.362C92.9095 164.362 92.91 164.36 92.91 164.358C93.1357 164.073 93.2841 163.703 93.2841 163.379V151.503C93.2841 148.324 92.1614 146.113 90.3781 145.176C88.8339 144.366 86.7962 144.508 84.5598 145.801C82.051 147.244 79.7887 149.855 78.1983 152.858C77.8316 153.551 77.4998 154.266 77.2098 154.991C76.336 157.169 75.8276 159.446 75.8276 161.581V174.091C75.8722 174.091 75.9179 174.089 75.9625 174.086C76.1972 174.069 76.4245 174.008 76.6034 173.905L76.956 172.667Z" fill="#00CAAD"/>
<path d="M129.66 140.647C129.66 139.712 130.315 138.576 131.125 138.108L203.437 96.362C204.246 95.8949 205.559 95.8949 206.368 96.362L208.02 97.316C208.83 97.7831 209.486 98.9199 209.486 99.8548V157.331C209.486 158.262 208.826 159.405 208.02 159.87L135.709 201.616C134.902 202.081 133.583 202.081 132.777 201.616L131.126 200.662C130.32 200.197 129.66 199.054 129.66 198.123V140.647Z" fill="#0F9A49"/>
<path d="M129.66 140.647C129.66 139.712 130.315 138.576 131.125 138.108L203.436 96.362C204.246 95.8949 205.559 95.8949 206.368 96.362L208.02 97.3166C208.83 97.7837 209.486 98.9205 209.486 99.8553V157.331C209.486 158.262 208.826 159.405 208.02 159.87L135.709 201.616C134.902 202.081 133.583 202.081 132.777 201.616L131.126 200.662C130.32 200.197 129.66 199.054 129.66 198.123V140.647Z" fill="#80EEAE" fill-opacity="0.79"/>
<path d="M130.087 139.203L134.247 141.602L209.056 98.4104C208.792 97.9528 208.424 97.5506 208.022 97.3148L206.366 96.3653C205.561 95.8936 204.243 95.8936 203.439 96.3653L131.127 138.107C130.718 138.343 130.35 138.745 130.087 139.203Z" fill="#0F9A49"/>
<path d="M130.087 139.203L134.247 141.602L209.055 98.4104C208.792 97.9528 208.424 97.5506 208.022 97.3148L206.365 96.3647C205.561 95.8931 204.243 95.8931 203.439 96.3647L131.127 138.107C130.718 138.343 130.35 138.745 130.087 139.203Z" fill="#2CE87B"/>
<path d="M129.657 140.645V198.121C129.657 199.057 130.315 200.194 131.126 200.658L132.777 201.616C132.902 201.686 133.034 201.747 133.179 201.796C133.367 201.858 133.568 201.907 133.782 201.935C134.164 201.984 134.566 201.969 134.941 201.893C135.038 201.872 135.137 201.85 135.227 201.822C135.29 201.801 135.355 201.782 135.406 201.76C135.135 201.858 134.892 201.831 134.698 201.734C134.421 201.587 134.247 201.256 134.247 200.77V143.294C134.247 142.691 134.552 142.233 135.01 142.046L134.247 141.602L130.087 139.203C129.823 139.661 129.657 140.18 129.657 140.645Z" fill="#0F9A49" fill-opacity="0.52"/>
<path d="M129.657 140.645V198.121C129.657 199.057 130.315 200.194 131.126 200.658L132.777 201.616C132.902 201.686 133.034 201.747 133.179 201.796C133.367 201.858 133.568 201.907 133.782 201.935C134.164 201.984 134.566 201.969 134.941 201.893C135.038 201.872 135.137 201.85 135.227 201.822C135.29 201.801 135.355 201.782 135.406 201.76C135.135 201.858 134.892 201.831 134.698 201.734C134.421 201.587 134.247 201.256 134.247 200.77V143.294C134.247 142.691 134.552 142.233 135.01 142.046L134.247 141.602L130.087 139.203C129.823 139.661 129.657 140.18 129.657 140.645Z" fill="#0F9A49" fill-opacity="0.52"/>
<path d="M134.247 141.602L168.972 154.576C171.448 155.498 174.228 154.583 175.67 152.371L181.247 143.827L209.055 98.4099L182.359 144.148L209.484 157.356C209.478 157.828 209.304 158.355 209.027 158.819L182.275 144.282L175.795 154.652C174.304 157.031 171.295 157.96 168.73 156.823L164.115 154.786L134.697 201.734C134.42 201.588 134.247 201.255 134.247 200.77V199.813L163.971 154.722L134.247 141.602Z" fill="#0F9547"/>
<path d="M134.247 141.602L168.972 154.576C171.448 155.498 174.228 154.583 175.67 152.371L181.247 143.827L209.055 98.4099L182.359 144.148L209.484 157.356C209.478 157.828 209.304 158.355 209.027 158.819L182.275 144.282L175.795 154.652C174.304 157.031 171.295 157.96 168.73 156.823L164.115 154.786L134.697 201.734C134.42 201.588 134.247 201.255 134.247 200.77V199.813L163.971 154.722L134.247 141.602Z" fill="#0F9547"/>
<path d="M147.994 151.242C147.994 150.308 148.65 149.171 149.459 148.704L221.771 106.958C222.581 106.49 223.893 106.49 224.702 106.958L226.355 107.912C227.165 108.379 227.82 109.516 227.82 110.45V167.927C227.82 168.858 227.161 170 226.355 170.466L154.043 212.211C153.237 212.677 151.918 212.677 151.112 212.211L149.46 211.258C148.654 210.792 147.994 209.65 147.994 208.719V151.242Z" fill="#0F9A49"/>
<path d="M147.994 151.242C147.994 150.307 148.65 149.171 149.459 148.703L221.771 106.957C222.581 106.49 223.893 106.49 224.702 106.957L226.355 107.911C227.165 108.378 227.82 109.515 227.82 110.45V167.926C227.82 168.857 227.161 170 226.355 170.465L154.043 212.211C153.237 212.676 151.918 212.676 151.112 212.211L149.46 211.257C148.654 210.792 147.994 209.649 147.994 208.718V151.242Z" fill="#13C85F"/>
<path d="M148.421 149.799L152.582 152.197L227.39 109.005C227.126 108.548 226.758 108.146 226.356 107.91L224.699 106.96C223.894 106.489 222.577 106.489 221.773 106.96L149.461 148.703C149.052 148.939 148.685 149.34 148.421 149.799Z" fill="#0F9A49"/>
<path d="M148.421 149.799L152.582 152.197L227.39 109.005C227.126 108.548 226.758 108.146 226.356 107.91L224.699 106.96C223.894 106.489 222.577 106.489 221.773 106.96L149.461 148.703C149.052 148.939 148.685 149.34 148.421 149.799Z" fill="#12BA58"/>
<path d="M147.992 151.241V208.716C147.992 209.653 148.65 210.79 149.461 211.254L151.112 212.211C151.237 212.281 151.369 212.343 151.514 212.392C151.702 212.454 151.903 212.502 152.117 212.53C152.499 212.579 152.901 212.565 153.276 212.488C153.373 212.468 153.47 212.44 153.559 212.412C153.622 212.392 153.678 212.37 153.733 212.343C153.462 212.44 153.227 212.426 153.033 212.329C152.756 212.184 152.582 211.851 152.582 211.365V153.889C152.582 153.286 152.887 152.828 153.345 152.641L152.582 152.197L148.422 149.799C148.158 150.256 147.992 150.776 147.992 151.241Z" fill="#0A622E" fill-opacity="0.69"/>
<path d="M152.581 152.197L187.307 165.172C189.782 166.093 192.562 165.178 194.005 162.966L199.581 154.423L227.39 109.005L200.693 154.744L227.819 167.952C227.812 168.423 227.639 168.95 227.361 169.415L200.61 154.877L194.13 165.248C192.639 167.626 189.629 168.555 187.064 167.418L182.45 165.381L153.032 212.329C152.755 212.184 152.581 211.851 152.581 211.366V210.409L182.306 165.317L152.581 152.197Z" fill="#0F9A49"/>
<path d="M152.581 152.197L187.307 165.172C189.782 166.093 192.562 165.178 194.005 162.966L199.581 154.423L227.39 109.005L200.693 154.744L227.819 167.952C227.812 168.423 227.639 168.95 227.361 169.415L200.61 154.877L194.13 165.248C192.639 167.626 189.629 168.555 187.064 167.418L182.45 165.381L153.032 212.329C152.755 212.184 152.581 211.851 152.581 211.366V210.409L182.306 165.317L152.581 152.197Z" fill="#0F9A49"/>
<path d="M166.479 162.299L241.728 118.854L244.739 120.593C245.518 121.042 246.155 122.145 246.155 123.044V178.554C246.155 179.454 245.518 180.556 244.739 181.006L172.321 222.817C171.542 223.266 170.268 223.266 169.489 222.817L167.895 221.895C167.115 221.446 166.479 220.343 166.479 219.444V162.299Z" fill="#0F9A49"/>
<path d="M166.479 162.299L241.728 118.854L244.739 120.592C245.518 121.041 246.155 122.145 246.155 123.044V178.554C246.155 179.453 245.518 180.556 244.739 181.006L172.321 222.817C171.542 223.266 170.268 223.266 169.489 222.817L167.895 221.895C167.115 221.446 166.479 220.342 166.479 219.443V162.299Z" fill="#13C85F"/>
<path d="M241.312 113.973L241.62 113.806L240.451 113.127C240.351 113.069 240.247 113.019 240.141 112.979L207.023 100.708C206.147 100.384 205.008 100.745 204.48 101.516L167.434 155.617C166.906 156.388 166.478 157.771 166.479 158.706V162.298L167.627 162.965L241.728 118.854V115.26C241.728 114.823 241.568 114.368 241.312 113.973Z" fill="#0F9A49"/>
<path d="M206.014 101.778C205.867 101.891 205.737 102.032 205.63 102.185L168.581 156.283C168.311 156.683 168.062 157.247 167.893 157.828L166.742 157.163C166.827 156.881 166.928 156.604 167.041 156.345C167.047 156.333 167.047 156.328 167.052 156.322C167.103 156.209 167.154 156.102 167.21 155.995C167.222 155.978 167.227 155.961 167.239 155.944C167.301 155.826 167.368 155.713 167.436 155.617L204.479 101.519C204.536 101.434 204.598 101.367 204.665 101.293C204.728 101.231 204.795 101.169 204.863 101.113L206.014 101.778Z" fill="#00CAAD"/>
<path d="M241.607 113.801C241.505 113.739 241.398 113.688 241.291 113.649L208.169 101.372C207.469 101.113 206.6 101.293 206.014 101.778L204.863 101.113C205.455 100.633 206.318 100.447 207.024 100.707L240.14 112.977C240.247 113.017 240.349 113.067 240.45 113.13L241.607 113.801Z" fill="white"/>
<path d="M167.237 155.943C167.301 155.825 167.367 155.717 167.435 155.617C167.367 155.717 167.301 155.826 167.237 155.943Z" fill="#0F9A49"/>
<path d="M204.667 101.293C204.729 101.23 204.796 101.17 204.866 101.113C204.796 101.17 204.728 101.228 204.667 101.293Z" fill="#0F9A49"/>
<path d="M166.741 157.164C166.825 156.881 166.928 156.602 167.042 156.344C166.927 156.602 166.825 156.88 166.741 157.164Z" fill="#0F9A49"/>
<path d="M167.051 156.321C167.102 156.207 167.157 156.1 167.211 155.996C167.156 156.1 167.102 156.207 167.051 156.321Z" fill="#0F9A49"/>
<path d="M204.48 101.517C204.535 101.436 204.6 101.364 204.667 101.293C204.598 101.363 204.535 101.436 204.48 101.517Z" fill="black"/>
<path d="M205.629 102.183L168.583 156.283C168.055 157.054 167.627 158.438 167.627 159.373V162.965L242.877 119.518L242.876 115.927C242.876 114.993 242.166 113.971 241.289 113.646L208.172 101.375C207.295 101.051 206.157 101.412 205.629 102.183Z" fill="#0F9A49"/>
<path d="M242.876 115.927C242.876 115.498 242.721 115.053 242.474 114.662L167.893 157.828C167.893 157.828 167.889 157.835 167.886 157.84C167.726 158.377 167.626 158.925 167.627 159.373V162.965L242.877 119.517L242.876 115.927Z" fill="#00D6B7"/>
<path d="M239.662 100.678C239.662 100.291 239.527 100.019 239.309 99.8902C239.087 99.7599 237.233 98.6919 237.012 98.5644C236.791 98.4369 236.486 98.4556 236.149 98.6502L174.426 134.284C173.752 134.673 173.205 135.621 173.205 136.4L173.205 210.319C173.205 210.708 173.342 210.981 173.562 211.109C173.783 211.237 175.634 212.304 175.854 212.432C176.076 212.56 176.381 212.541 176.719 212.347L238.441 176.713C239.116 176.324 239.662 175.376 239.662 174.597L239.662 100.678Z" fill="#F1F1F1"/>
<path d="M176.719 212.346L238.44 176.713C239.115 176.323 239.662 175.375 239.662 174.597L239.662 100.678C239.662 99.8993 239.115 99.5839 238.44 99.9732L176.718 135.606C176.044 135.996 175.496 136.943 175.496 137.722L175.497 211.641C175.497 212.419 176.044 212.735 176.719 212.346Z" fill="#FAFAFA"/>
<path d="M216.274 142.389C216.209 143.264 216.055 144.083 215.813 144.849C215.569 145.615 215.273 146.303 214.924 146.913C214.574 147.523 214.184 148.05 213.759 148.488C213.333 148.928 212.902 149.258 212.469 149.48C211.696 149.875 211.103 150.018 210.692 149.909C210.279 149.799 209.973 149.606 209.772 149.333C209.639 149.622 209.499 149.917 209.35 150.213C209.201 150.51 209.016 150.803 208.792 151.095C208.569 151.387 208.292 151.672 207.963 151.951C207.634 152.23 207.229 152.493 206.75 152.738C206.178 153.031 205.667 153.131 205.215 153.041C204.765 152.951 204.384 152.685 204.077 152.246C203.768 151.806 203.543 151.208 203.399 150.452C203.255 149.697 203.204 148.798 203.246 147.759C203.287 146.721 203.409 145.734 203.613 144.8C203.817 143.866 204.086 143.015 204.42 142.248C204.753 141.479 205.154 140.809 205.624 140.237C206.094 139.665 206.615 139.232 207.188 138.939C207.821 138.615 208.287 138.515 208.585 138.639C208.883 138.764 209.124 138.989 209.308 139.315L209.321 139.01C209.331 138.762 209.401 138.516 209.531 138.272C209.663 138.028 209.813 137.861 209.983 137.774L211.189 137.158C211.359 137.071 211.502 137.086 211.619 137.204C211.735 137.322 211.788 137.504 211.779 137.752L211.491 144.969C211.469 145.511 211.572 145.868 211.8 146.039C212.028 146.21 212.297 146.217 212.605 146.059C212.915 145.9 213.188 145.61 213.425 145.191C213.661 144.772 213.808 144.193 213.869 143.454C213.924 142.828 213.965 142.182 213.991 141.516C214.017 140.849 214.019 140.235 213.997 139.671C213.953 138.476 213.804 137.479 213.549 136.681C213.293 135.882 212.917 135.306 212.425 134.95C211.931 134.593 211.3 134.457 210.533 134.54C209.764 134.624 208.846 134.937 207.779 135.483C206.882 135.942 206.071 136.54 205.345 137.276C204.618 138.013 203.988 138.845 203.45 139.772C202.914 140.7 202.472 141.705 202.125 142.789C201.78 143.874 201.538 144.982 201.402 146.114C201.359 146.424 201.325 146.822 201.297 147.312C201.271 147.801 201.246 148.313 201.226 148.842C201.204 149.374 201.187 149.886 201.175 150.379C201.163 150.872 201.166 151.268 201.184 151.568C201.234 152.605 201.395 153.497 201.668 154.242C201.941 154.988 202.32 155.563 202.804 155.967C203.288 156.373 203.877 156.58 204.574 156.588C205.27 156.597 206.067 156.372 206.964 155.914C207.598 155.589 208.149 155.263 208.617 154.936C209.083 154.608 209.495 154.275 209.849 153.94C210.203 153.603 210.507 153.276 210.763 152.958C211.017 152.639 211.25 152.327 211.459 152.021C211.637 151.754 211.777 151.555 211.88 151.424C211.984 151.294 212.121 151.184 212.292 151.097L214.008 150.219C214.178 150.133 214.324 150.14 214.45 150.243C214.574 150.344 214.623 150.547 214.596 150.849C214.588 151.029 214.528 151.226 214.414 151.439C214.069 152.08 213.683 152.753 213.253 153.46C212.823 154.165 212.315 154.858 211.728 155.535C211.14 156.211 210.447 156.876 209.649 157.527C208.85 158.179 207.909 158.782 206.827 159.336C205.481 160.025 204.31 160.341 203.314 160.287C202.316 160.233 201.485 159.895 200.82 159.272C200.155 158.65 199.648 157.792 199.298 156.698C198.948 155.606 198.755 154.371 198.719 152.996C198.716 152.688 198.722 152.27 198.735 151.742C198.748 151.216 198.767 150.665 198.789 150.089C198.813 149.513 198.839 148.963 198.867 148.44C198.896 147.915 198.923 147.502 198.95 147.202C199.085 145.762 199.373 144.292 199.819 142.791C200.265 141.29 200.864 139.861 201.615 138.503C202.366 137.146 203.268 135.905 204.321 134.781C205.372 133.656 206.57 132.75 207.917 132.062C209.494 131.255 210.82 130.852 211.895 130.856C212.97 130.858 213.84 131.166 214.505 131.777C215.169 132.389 215.65 133.261 215.946 134.393C216.241 135.525 216.407 136.812 216.439 138.256C216.447 138.827 216.435 139.502 216.403 140.282C216.372 141.061 216.329 141.764 216.274 142.389ZM205.681 146.513C205.637 147.62 205.749 148.404 206.019 148.863C206.288 149.323 206.692 149.414 207.235 149.137C207.806 148.845 208.248 148.327 208.558 147.581C208.867 146.837 209.045 145.9 209.091 144.77C209.135 143.663 209.026 142.872 208.765 142.397C208.503 141.922 208.086 141.832 207.515 142.124C206.973 142.401 206.543 142.925 206.225 143.697C205.906 144.468 205.725 145.407 205.681 146.513Z" fill="#0F9A49"/>
<path d="M175.495 211.641C175.495 211.985 175.601 212.239 175.782 212.386C175.37 212.154 173.768 211.223 173.565 211.111C173.34 210.981 173.204 210.71 173.204 210.321V136.398C173.204 136.009 173.34 135.58 173.565 135.196L175.856 136.516C175.629 136.9 175.495 137.334 175.495 137.724V211.641Z" fill="#E2E2E2"/>
<path d="M244.246 179.293C244.224 179.333 244.201 179.367 244.167 179.406L212.809 169.463C210.346 168.369 207.463 169.26 206.033 171.549L172.51 221.374L171.269 222.09L171.258 222.096C170.883 222.304 170.546 222.332 170.299 222.203L204.776 170.844C206.206 168.555 209.095 167.665 211.559 168.752L244.246 179.293Z" fill="#0F9A49"/>
<path d="M202.945 176.44L203.024 176.372L172.508 221.376L171.267 222.093L171.255 222.098C170.884 222.307 170.545 222.33 170.296 222.205L201.737 175.718L202.945 176.44Z" fill="white"/>
<path d="M244.248 179.295C244.225 179.335 244.203 179.368 244.168 179.408L212.807 169.46C210.347 168.366 207.464 169.257 206.031 171.548L204.79 170.826C206.223 168.547 209.1 167.667 211.56 168.75L244.248 179.295Z" fill="#66EDDA"/>
<path d="M246.128 122.689H246.123C246.055 122.283 245.841 122.17 245.564 122.362C245.457 122.435 245.333 122.56 245.203 122.734L245.045 122.954L214.101 170L209.48 176.436C208.961 177.17 207.821 177.593 206.936 177.39L202.947 176.443L172.499 165.233C172.279 165.182 172.07 165.177 171.878 165.211C171.799 165.228 171.72 165.25 171.647 165.283L172.795 164.62L201.987 175.319L205.83 176.691C206.71 176.9 207.85 176.476 208.374 175.737L212.995 169.305L244.092 122.041C244.193 121.9 244.317 121.798 244.441 121.719L241.75 120.168L242.879 119.519L244.74 120.591C245.417 120.986 245.987 121.871 246.128 122.689Z" fill="#0F9A49"/>
<path d="M214.098 169.997L209.478 176.434C208.959 177.168 207.819 177.591 206.933 177.388L202.945 176.44L203.024 176.372L203.216 176.067L205.828 176.688C206.708 176.897 207.847 176.474 208.372 175.735L212.947 169.371L214.098 169.997Z" fill="white"/>
<path d="M244.738 120.588L242.876 119.516L241.748 120.165L244.44 121.717L244.446 121.722L244.441 121.719C244.306 121.805 244.186 121.908 244.092 122.04L212.992 169.304L212.947 169.365V169.371L214.098 169.997L245.043 122.952L245.201 122.732C245.331 122.557 245.455 122.433 245.562 122.36C245.838 122.168 246.053 122.281 246.12 122.687H246.126C245.985 121.869 245.415 120.983 244.738 120.588Z" fill="#0A622E"/>
<path d="M173.117 166.134L166.478 162.299V219.443C166.478 220.342 167.115 221.446 167.894 221.895L169.489 222.816C170.268 223.266 171.543 223.266 172.321 222.816L173.117 222.357V166.134Z" fill="#0F9A49"/>
<path d="M173.117 166.134L166.479 162.299V219.443C166.479 220.342 167.115 221.446 167.895 221.895L169.489 222.816C170.268 223.266 171.542 223.266 172.321 222.816L173.117 222.357V166.134Z" fill="#0A622E"/>
<path d="M246.157 123.045V178.553C246.157 179.021 245.988 179.535 245.717 179.986C245.491 180.358 245.209 180.691 244.887 180.917L244.831 180.945C244.797 180.968 244.775 180.99 244.741 181.007L172.324 222.812L172.313 222.818C171.935 223.032 171.596 223.06 171.348 222.93C171.129 222.818 170.976 222.586 170.925 222.253C170.914 222.174 170.908 222.09 170.908 222V166.486C170.908 165.589 171.613 165.024 172.499 165.233L202.947 176.443L206.936 177.39C207.822 177.593 208.961 177.17 209.48 176.437L214.101 170L245.045 122.954L245.204 122.734C245.728 122.007 246.157 122.142 246.157 123.045Z" fill="#0F9A49"/>
<path d="M244.741 181.008C244.773 180.991 244.799 180.969 244.833 180.948L244.887 180.915C245.208 180.692 245.492 180.36 245.716 179.989C245.983 179.544 246.149 179.037 246.154 178.58L214.103 170L235.566 186.304L244.741 181.008Z" fill="#0F9A49"/>
<path d="M244.74 181.008C244.773 180.991 244.799 180.969 244.833 180.948L244.887 180.915C245.208 180.692 245.492 180.36 245.716 179.989C245.983 179.544 246.149 179.037 246.155 178.58L214.103 170L235.566 186.304L244.74 181.008Z" fill="#0A622E"/>
<path d="M170.908 221.997C170.908 222.466 171.076 222.787 171.348 222.928C171.599 223.059 171.937 223.032 172.312 222.819L172.324 222.814L197.257 208.42L202.95 176.441L170.909 221.075L170.908 221.997Z" fill="#0F9A49"/>
<path d="M206.02 171.543L171.346 222.928C171.076 222.787 170.907 222.465 170.907 221.997L170.908 221.074L204.779 170.843C204.779 170.838 204.785 170.832 204.79 170.826L206.02 171.543Z" fill="#0A622E"/>
<path d="M245.715 179.988C245.492 180.359 245.208 180.691 244.887 180.915L244.833 180.947L172.323 222.814L172.312 222.819C171.937 223.032 171.599 223.059 171.348 222.928L206.025 171.534C207.462 169.239 210.367 168.348 212.843 169.442L245.715 179.988Z" fill="#0F9A49"/>
<path d="M166.743 157.163L167.894 157.828C167.73 158.37 167.628 158.923 167.628 159.374V162.962L166.478 162.297V158.703C166.478 158.257 166.579 157.704 166.743 157.163Z" fill="#13C85F"/>
<path d="M172.795 164.62L171.647 165.284L170.485 164.613L167.624 162.965L168.737 162.305L172.795 164.62Z" fill="#0F9A49"/>
<path d="M172.845 164.642L168.736 162.305L167.625 162.965L170.484 164.613L171.647 165.284L171.659 165.277C171.729 165.246 171.802 165.224 171.876 165.208C172.068 165.174 172.277 165.18 172.497 165.23L174.81 166.084L201.39 175.869L201.805 175.253L172.845 164.642Z" fill="#0A622E"/>
<path d="M110.528 68.5451L106.23 71.0263C106.25 70.8345 106.266 70.6444 106.266 70.4576V69.2125C106.266 66.9965 104.71 66.0983 102.791 67.2064C102.014 67.6549 101.299 68.3663 100.72 69.1979C100.407 66.4114 98.2206 65.3739 95.5651 66.9068C92.6946 68.5643 90.3668 72.5953 90.3668 75.9103V77.7726C90.3668 78.6313 90.5259 79.3546 90.8069 79.9311L87.2363 81.992C86.1723 82.607 85.3091 84.1015 85.3091 85.3302C85.3091 86.5595 86.1723 87.0577 87.2363 86.4433L110.528 72.9964C111.592 72.3815 112.456 70.887 112.456 69.6577C112.456 68.4289 111.592 67.9307 110.528 68.5451Z" fill="#F0F0F0"/>
<path d="M89.7188 54.3755L84.428 57.4305C84.454 57.1941 84.472 56.9594 84.472 56.7298V55.1969C84.472 52.4692 82.5573 51.3634 80.1945 52.7276C79.2377 53.2799 78.3576 54.1549 77.6451 55.1789C77.2586 51.7493 74.5681 50.4715 71.2993 52.3586C67.7648 54.3992 64.9 59.361 64.9 63.4422V65.7356C64.9 66.7928 65.0952 67.6825 65.441 68.3922L61.0467 70.9298C59.7362 71.6864 58.6738 73.5261 58.6738 75.0392C58.6738 76.5523 59.7362 77.1656 61.0467 76.409L89.7188 59.8553C91.0294 59.0987 92.0917 57.2584 92.0917 55.7453C92.0917 54.2328 91.0294 53.619 89.7188 54.3755Z" fill="#F0F0F0"/>
<path d="M260.184 101.005L280.142 88.2233L288.934 91.0458L260.184 101.005Z" fill="#00E1C1"/>
<path d="M260.184 101.006L277.434 86.6199L273.6 82.1929L260.184 101.006Z" fill="#00E1C1"/>
<path d="M277.434 86.6193V89.958L260.184 101.006L277.434 86.6193Z" fill="#0F9A49"/>
<path d="M277.434 86.6199V89.958L260.184 101.006L277.434 86.6199Z" fill="#00A991"/>
<path d="M229.128 61.3808C230.6 60.5921 232.01 59.6736 233.544 59.0141C235.494 58.1758 237.5 57.4457 239.551 56.9007C241.536 56.3732 243.573 56.0314 245.614 55.8068C247.647 55.5834 249.7 55.4988 251.744 55.5608C253.828 55.624 255.915 55.8158 257.968 56.1803C259.992 56.5397 261.999 57.0463 263.94 57.725C265.969 58.4341 267.948 59.3058 269.837 60.3303C271.606 61.2894 273.35 62.3427 274.876 63.6544C276.396 64.961 277.792 66.4521 278.9 68.122C280.039 69.8388 281.024 71.7146 281.548 73.7073C282.094 75.7851 282.352 78.0045 282.056 80.1326C281.774 82.1653 280.989 84.172 279.857 85.8837C278.454 88.0032 275.883 90.2706 274.597 91.4046" stroke="#E2E2E2" stroke-width="2" stroke-dasharray="6 3"/>
</g>
</g>
<defs>
<clipPath id="clip0_1260_23423">
<rect width="304" height="304" fill="white" transform="translate(0.5)"/>
</clipPath>
</defs>
</svg>
