<svg width="1440" height="916" viewBox="0 0 1440 916" fill="none" xmlns="http://www.w3.org/2000/svg">
<g clip-path="url(#clip0_2565_13000)">
<path d="M1440 0H0V916H1440V0Z" fill="#FBFBFB"/>
<path d="M1440 526C1366.96 509.271 1293.93 492.541 1237.59 458.823C1181.4 425.105 1142.05 374.399 1086.55 331.992C1031.18 289.456 959.665 255.219 922.663 201.27C885.523 147.321 882.761 73.6607 880 0H1440V526Z" fill="#F1F8F4"/>
<path d="M0 401C56.3141 434.14 112.628 467.28 171.913 490.135C231.321 512.99 293.576 525.687 345.682 561.366C397.788 597.045 439.498 655.961 463.756 718.939C488.138 781.917 495.069 848.959 502 916H0V401Z" fill="#F1F8F4"/>
</g>
<defs>
<clipPath id="clip0_2565_13000">
<rect width="1440" height="916" fill="white"/>
</clipPath>
</defs>
</svg>
