<svg width="20" height="21" viewBox="0 0 20 21" fill="none" xmlns="http://www.w3.org/2000/svg">
<path
d="M14.0835 14.5834L18.1668 18.6667L14.0835 14.5834ZM1.8335 9.33337C1.8335 10.2526 2.01456 11.1629 2.36634 12.0122C2.71812 12.8614 3.23374 13.6331 3.88375 14.2831C4.53376 14.9331 5.30543 15.4487 6.15471 15.8005C7.00399 16.1523 7.91424 16.3334 8.8335 16.3334C9.75275 16.3334 10.663 16.1523 11.5123 15.8005C12.3616 15.4487 13.1332 14.9331 13.7832 14.2831C14.4333 13.6331 14.9489 12.8614 15.3007 12.0122C15.6524 11.1629 15.8335 10.2526 15.8335 9.33337C15.8335 7.47686 15.096 5.69638 13.7832 4.38363C12.4705 3.07087 10.69 2.33337 8.8335 2.33337C6.97698 2.33337 5.1965 3.07087 3.88375 4.38363C2.57099 5.69638 1.8335 7.47686 1.8335 9.33337V9.33337Z"
stroke="#9CA3AF"
stroke-width="3.1544" stroke-linecap="round" stroke-linejoin="round"/>
</svg>
